<svg version="1.1" xmlns="http://www.w3.org/2000/svg" xmlns:xlink="http://www.w3.org/1999/xlink" width="50px" height="50px" viewBox="0,0,256,256"><g fill="#e3cbb7" fill-rule="nonzero" stroke="none" stroke-width="1" stroke-linecap="butt" stroke-linejoin="miter" stroke-miterlimit="10" stroke-dasharray="" stroke-dashoffset="0" font-family="none" font-weight="none" font-size="none" text-anchor="none" style="mix-blend-mode: normal"><path d="M0,256v-256h256v256z" id="bgRectangle"></path></g><g fill="#e3cbb7" fill-rule="nonzero" stroke="#e3cbb7" stroke-width="6" stroke-linecap="butt" stroke-linejoin="round" stroke-miterlimit="10" stroke-dasharray="" stroke-dashoffset="0" font-family="none" font-weight="none" font-size="none" text-anchor="none" style="mix-blend-mode: normal"><path transform="scale(5.12,5.12)" d="M0,25c0,-13.80859 11.19141,-25 25,-25c13.80859,0 25,11.19141 25,25c0,13.80859 -11.19141,25 -25,25c-13.80859,0 -25,-11.19141 -25,-25z" id="strokeMainSVG"></path></g><g fill="#ffffff" fill-rule="evenodd" stroke="none" stroke-width="1" stroke-linecap="butt" stroke-linejoin="miter" stroke-miterlimit="10" stroke-dasharray="" stroke-dashoffset="0" font-family="none" font-weight="none" font-size="none" text-anchor="none" style="mix-blend-mode: normal"><g transform="scale(5.12,5.12)"><g id="surface1"><path d="M0,25c0,-13.80859 11.19141,-25 25,-25c13.80859,0 25,11.19141 25,25c0,13.80859 -11.19141,25 -25,25c-13.80859,0 -25,-11.19141 -25,-25zM35.30859,10.83203h-19.78125c-1.66797,0 -3.02734,1.34375 -3.02734,3.00391v19.71875c0,1.66016 1.35938,3.00391 3.02734,3.00391h16.73828l-0.78125,-2.69922l1.89063,1.73828l1.78516,1.63281l3.17188,2.76953v-26.16406c0,-1.66016 -1.35547,-3.00391 -3.02344,-3.00391zM35.30859,10.83203"></path><path d="M29.60938,29.87891c0,0 -0.53125,-0.625 -0.97266,-1.17969c1.93359,-0.53906 2.67188,-1.73828 2.67188,-1.73828c-0.60547,0.39453 -1.18359,0.67187 -1.69922,0.86328c-0.73828,0.30469 -1.44531,0.50781 -2.14062,0.625c-1.41797,0.26172 -2.71484,0.19141 -3.82422,-0.01562c-0.83984,-0.16016 -1.5625,-0.39062 -2.16797,-0.625c-0.33984,-0.13281 -0.71094,-0.29297 -1.07812,-0.49609c-0.04688,-0.02734 -0.08984,-0.04297 -0.13281,-0.07422c-0.03125,-0.01172 -0.04687,-0.02734 -0.05859,-0.04297c-0.26562,-0.14453 -0.41406,-0.24609 -0.41406,-0.24609c0,0 0.70703,1.16406 2.58203,1.71875c-0.44141,0.55469 -0.98828,1.21094 -0.98828,1.21094c-3.26172,-0.10156 -4.50391,-2.21484 -4.50391,-2.21484c0,-4.69922 2.12891,-8.50391 2.12891,-8.50391c2.125,-1.57422 4.14453,-1.53125 4.14453,-1.53125l0.14844,0.17578c-2.65625,0.75781 -3.88281,1.91016 -3.88281,1.91016c0,0 0.32813,-0.17578 0.87109,-0.42187c1.58203,-0.6875 2.83594,-0.875 3.35156,-0.92187c0.08984,-0.01172 0.16406,-0.02734 0.25,-0.02734c0.90234,-0.11719 1.92188,-0.14453 2.98438,-0.02734c1.40234,0.16016 2.90625,0.56641 4.44141,1.39844c0,0 -1.16406,-1.09375 -3.67578,-1.85156l0.20703,-0.23437c0,0 2.02344,-0.04297 4.14844,1.53125c0,0 2.125,3.80469 2.125,8.50391c0,0 -1.25391,2.11328 -4.51562,2.21484zM23.16016,23.33203c-0.83594,0 -1.49219,0.75391 -1.49219,1.66797c0,0.91406 0.67188,1.66797 1.49219,1.66797c0.83594,0 1.49609,-0.75391 1.49609,-1.66797c0.01172,-0.91406 -0.66016,-1.66797 -1.49609,-1.66797zM28.50781,23.33203c-0.83594,0 -1.49609,0.75391 -1.49609,1.66797c0,0.91406 0.67578,1.66797 1.49609,1.66797c0.83203,0 1.49219,-0.75391 1.49219,-1.66797c0,-0.91406 -0.66016,-1.66797 -1.49219,-1.66797zM28.50781,23.33203"></path></g></g></g></svg>