<svg version="1.1" xmlns="http://www.w3.org/2000/svg" xmlns:xlink="http://www.w3.org/1999/xlink" width="50px" height="50px" viewBox="0,0,256,256"><g fill="#e3cbb7" fill-rule="nonzero" stroke="none" stroke-width="1" stroke-linecap="butt" stroke-linejoin="miter" stroke-miterlimit="10" stroke-dasharray="" stroke-dashoffset="0" font-family="none" font-weight="none" font-size="none" text-anchor="none" style="mix-blend-mode: normal"><path d="M0,256v-256h256v256z" id="bgRectangle"></path></g><g fill="#e3cbb7" fill-rule="nonzero" stroke="#e3cbb7" stroke-width="6" stroke-linecap="butt" stroke-linejoin="round" stroke-miterlimit="10" stroke-dasharray="" stroke-dashoffset="0" font-family="none" font-weight="none" font-size="none" text-anchor="none" style="mix-blend-mode: normal"><path transform="scale(5.12,5.12)" d="M50,25c0,13.80859 -11.19141,25 -25,25c-13.80859,0 -25,-11.19141 -25,-25c0,-13.80859 11.19141,-25 25,-25c13.80859,0 25,11.19141 25,25z" id="strokeMainSVG"></path></g><g fill="#ffffff" fill-rule="nonzero" stroke="none" stroke-width="1" stroke-linecap="butt" stroke-linejoin="miter" stroke-miterlimit="10" stroke-dasharray="" stroke-dashoffset="0" font-family="none" font-weight="none" font-size="none" text-anchor="none" style="mix-blend-mode: normal"><g transform="scale(5.12,5.12)"><g id="surface1"><path d="M26.15234,28.63281c-0.60937,0.61328 -1.59766,0.61328 -2.21094,0l-1.23437,-1.23437l-4.75,4.63281h14.14063l-4.75,-4.59375zM34.53516,17.96875h-18.99609l9.46094,9.375zM14.0625,18.75391v13.27734h1.60938l5.88281,-5.78516zM34.42188,32.03125h1.51563v-13.17969l-7.39844,7.39453zM25,0c-13.80859,0 -25,11.19141 -25,25c0,13.80859 11.19141,25 25,25c13.80859,0 25,-11.19141 25,-25c0,-13.80859 -11.19141,-25 -25,-25zM37.5,32.03125c0,0.86328 -0.69922,1.5625 -1.5625,1.5625h-21.875c-0.86328,0 -1.5625,-0.69922 -1.5625,-1.5625v-14.0625c0,-0.86328 0.69922,-1.5625 1.5625,-1.5625h21.875c0.86328,0 1.5625,0.69922 1.5625,1.5625zM37.5,32.03125"></path></g></g></g></svg>