<svg version="1.1" xmlns="http://www.w3.org/2000/svg" xmlns:xlink="http://www.w3.org/1999/xlink" width="438.549px" height="438.549px" viewBox="0,0,256,256"><g fill="#fef8f9" fill-rule="nonzero" stroke="none" stroke-width="1" stroke-linecap="butt" stroke-linejoin="miter" stroke-miterlimit="10" stroke-dasharray="" stroke-dashoffset="0" font-family="none" font-weight="none" font-size="none" text-anchor="none" style="mix-blend-mode: normal"><path d="M0,256v-256h256v256z" id="bgRectangle"></path></g><g fill="#fef8f9" fill-rule="nonzero" stroke="#fef8f9" stroke-width="55" stroke-linecap="butt" stroke-linejoin="round" stroke-miterlimit="10" stroke-dasharray="" stroke-dashoffset="0" font-family="none" font-weight="none" font-size="none" text-anchor="none" style="mix-blend-mode: normal"><path transform="translate(0,-3.21033) scale(0.58375,0.59838)" d="M438.546,224.622c0,47.78 -13.945,90.745 -41.825,128.906c-27.883,38.164 -63.905,64.573 -108.068,79.226c-5.14,0.955 -8.897,0.284 -11.276,-1.995c-2.382,-2.283 -3.572,-5.14 -3.572,-8.562v-60.237c0,-18.462 -4.948,-31.977 -14.842,-40.539c10.848,-1.142 20.601,-2.86 29.263,-5.146c8.658,-2.286 17.608,-5.996 26.84,-11.136c9.23,-5.136 16.94,-11.465 23.131,-18.986c6.184,-7.522 11.225,-17.508 15.125,-29.979c3.895,-12.469 5.853,-26.788 5.853,-42.966c0,-23.03 -7.523,-42.637 -22.559,-58.817c7.046,-17.318 6.283,-36.731 -2.279,-58.24c-5.332,-1.715 -13.046,-0.667 -23.134,3.138c-10.082,3.807 -18.843,7.995 -26.262,12.565l-10.849,6.849c-17.706,-4.947 -35.981,-7.421 -54.823,-7.421c-18.842,0 -37.113,2.474 -54.818,7.421c-3.046,-2.09 -7.089,-4.667 -12.135,-7.708c-5.046,-3.042 -12.99,-6.711 -23.84,-10.994c-10.848,-4.281 -19.034,-5.568 -24.554,-3.853c-8.376,21.508 -9.041,40.922 -1.997,58.24c-15.037,16.18 -22.557,35.782 -22.557,58.817c0,16.178 1.951,30.452 5.852,42.826c3.899,12.369 8.897,22.365 14.987,29.979c6.089,7.61 13.75,13.989 22.985,19.126c9.23,5.144 18.177,8.854 26.835,11.14c8.663,2.283 18.416,4 29.264,5.14c-7.611,6.851 -12.275,16.652 -13.988,29.41c-3.999,1.902 -8.282,3.333 -12.847,4.285c-4.57,0.947 -9.994,1.423 -16.274,1.423c-6.28,0 -12.515,-2.043 -18.699,-6.136c-6.189,-4.093 -11.466,-10.041 -15.846,-17.847c-3.617,-6.088 -8.232,-11.036 -13.846,-14.842c-5.617,-3.809 -10.326,-6.088 -14.133,-6.851l-5.708,-0.853c-3.999,0 -6.755,0.417 -8.28,1.276c-1.525,0.859 -1.999,1.954 -1.427,3.289c0.571,1.334 1.426,2.666 2.568,3.997c1.143,1.331 2.379,2.478 3.711,3.429l1.999,1.431c4.187,1.903 8.326,5.517 12.419,10.848c4.093,5.326 7.089,10.185 8.992,14.559l2.855,6.57c2.475,7.228 6.662,13.083 12.56,17.556c5.901,4.473 12.276,7.328 19.13,8.559c6.851,1.242 13.468,1.91 19.842,1.999c6.377,0.092 11.659,-0.233 15.846,-1l6.567,-1.136c0,7.227 0.046,15.697 0.144,25.406c0.095,9.709 0.144,14.846 0.144,15.417c0,3.422 -1.236,6.28 -3.711,8.562c-2.474,2.279 -6.279,2.95 -11.419,1.996c-44.157,-14.655 -80.179,-41.063 -108.063,-79.227c-27.887,-38.161 -41.827,-81.126 -41.827,-128.906c0,-39.776 9.803,-76.462 29.408,-110.057c19.608,-33.596 46.204,-60.195 79.8,-79.8c33.591,-19.604 70.282,-29.408 110.063,-29.408c39.786,0 76.465,9.801 110.063,29.408c33.593,19.606 60.19,46.204 79.798,79.8c19.596,33.595 29.404,70.278 29.414,110.049z" id="strokeMainSVG"></path></g><g fill="none" fill-rule="nonzero" stroke="none" stroke-width="none" stroke-linecap="butt" stroke-linejoin="none" stroke-miterlimit="10" stroke-dasharray="" stroke-dashoffset="0" font-family="none" font-weight="none" font-size="none" text-anchor="none" style="mix-blend-mode: normal"><g><g fill="#fef8f9" stroke="none" stroke-width="1" stroke-linejoin="miter"><path d="M0,256v-256h256v256z" id="bgRectangle"></path></g><g fill="#e3cbb7" stroke="#fef8f9" stroke-width="55" stroke-linejoin="round"><path transform="translate(0.00088,0.00015) scale(0.58374,0.58374)" d="M438.546,224.622c0,47.78 -13.945,90.745 -41.825,128.906c-27.883,38.164 -63.905,64.573 -108.068,79.226c-5.14,0.955 -8.897,0.284 -11.276,-1.995c-2.382,-2.283 -3.572,-5.14 -3.572,-8.562v-60.237c0,-18.462 -4.948,-31.977 -14.842,-40.539c10.848,-1.142 20.601,-2.86 29.263,-5.146c8.658,-2.286 17.608,-5.996 26.84,-11.136c9.23,-5.136 16.94,-11.465 23.131,-18.986c6.184,-7.522 11.225,-17.508 15.125,-29.979c3.895,-12.469 5.853,-26.788 5.853,-42.966c0,-23.03 -7.523,-42.637 -22.559,-58.817c7.046,-17.318 6.283,-36.731 -2.279,-58.24c-5.332,-1.715 -13.046,-0.667 -23.134,3.138c-10.082,3.807 -18.843,7.995 -26.262,12.565l-10.849,6.849c-17.706,-4.947 -35.981,-7.421 -54.823,-7.421c-18.842,0 -37.113,2.474 -54.818,7.421c-3.046,-2.09 -7.089,-4.667 -12.135,-7.708c-5.046,-3.042 -12.99,-6.711 -23.84,-10.994c-10.848,-4.281 -19.034,-5.568 -24.554,-3.853c-8.376,21.508 -9.041,40.922 -1.997,58.24c-15.037,16.18 -22.557,35.782 -22.557,58.817c0,16.178 1.951,30.452 5.852,42.826c3.899,12.369 8.897,22.365 14.987,29.979c6.089,7.61 13.75,13.989 22.985,19.126c9.23,5.144 18.177,8.854 26.835,11.14c8.663,2.283 18.416,4 29.264,5.14c-7.611,6.851 -12.275,16.652 -13.988,29.41c-3.999,1.902 -8.282,3.333 -12.847,4.285c-4.57,0.947 -9.994,1.423 -16.274,1.423c-6.28,0 -12.515,-2.043 -18.699,-6.136c-6.189,-4.093 -11.466,-10.041 -15.846,-17.847c-3.617,-6.088 -8.232,-11.036 -13.846,-14.842c-5.617,-3.809 -10.326,-6.088 -14.133,-6.851l-5.708,-0.853c-3.999,0 -6.755,0.417 -8.28,1.276c-1.525,0.859 -1.999,1.954 -1.427,3.289c0.571,1.334 1.426,2.666 2.568,3.997c1.143,1.331 2.379,2.478 3.711,3.429l1.999,1.431c4.187,1.903 8.326,5.517 12.419,10.848c4.093,5.326 7.089,10.185 8.992,14.559l2.855,6.57c2.475,7.228 6.662,13.083 12.56,17.556c5.901,4.473 12.276,7.328 19.13,8.559c6.851,1.242 13.468,1.91 19.842,1.999c6.377,0.092 11.659,-0.233 15.846,-1l6.567,-1.136c0,7.227 0.046,15.697 0.144,25.406c0.095,9.709 0.144,14.846 0.144,15.417c0,3.422 -1.236,6.28 -3.711,8.562c-2.474,2.279 -6.279,2.95 -11.419,1.996c-44.157,-14.655 -80.179,-41.063 -108.063,-79.227c-27.887,-38.161 -41.827,-81.126 -41.827,-128.906c0,-39.776 9.803,-76.462 29.408,-110.057c19.608,-33.596 46.204,-60.195 79.8,-79.8c33.591,-19.604 70.282,-29.408 110.063,-29.408c39.786,0 76.465,9.801 110.063,29.408c33.593,19.606 60.19,46.204 79.798,79.8c19.596,33.595 29.404,70.278 29.414,110.049z" id="strokeMainSVG"></path></g><g fill="#514444" stroke="none" stroke-width="1" stroke-linejoin="miter"><g transform="translate(0.00088,0.00015) scale(0.58374,0.58374)"><g><path d="M409.132,114.573c-19.608,-33.596 -46.205,-60.194 -79.798,-79.8c-33.598,-19.607 -70.277,-29.408 -110.063,-29.408c-39.781,0 -76.472,9.804 -110.063,29.408c-33.596,19.605 -60.192,46.204 -79.8,79.8c-19.605,33.595 -29.408,70.281 -29.408,110.057c0,47.78 13.94,90.745 41.827,128.906c27.884,38.164 63.906,64.572 108.063,79.227c5.14,0.954 8.945,0.283 11.419,-1.996c2.475,-2.282 3.711,-5.14 3.711,-8.562c0,-0.571 -0.049,-5.708 -0.144,-15.417c-0.098,-9.709 -0.144,-18.179 -0.144,-25.406l-6.567,1.136c-4.187,0.767 -9.469,1.092 -15.846,1c-6.374,-0.089 -12.991,-0.757 -19.842,-1.999c-6.854,-1.231 -13.229,-4.086 -19.13,-8.559c-5.898,-4.473 -10.085,-10.328 -12.56,-17.556l-2.855,-6.57c-1.903,-4.374 -4.899,-9.233 -8.992,-14.559c-4.093,-5.331 -8.232,-8.945 -12.419,-10.848l-1.999,-1.431c-1.332,-0.951 -2.568,-2.098 -3.711,-3.429c-1.142,-1.331 -1.997,-2.663 -2.568,-3.997c-0.572,-1.335 -0.098,-2.43 1.427,-3.289c1.525,-0.859 4.281,-1.276 8.28,-1.276l5.708,0.853c3.807,0.763 8.516,3.042 14.133,6.851c5.614,3.806 10.229,8.754 13.846,14.842c4.38,7.806 9.657,13.754 15.846,17.847c6.184,4.093 12.419,6.136 18.699,6.136c6.28,0 11.704,-0.476 16.274,-1.423c4.565,-0.952 8.848,-2.383 12.847,-4.285c1.713,-12.758 6.377,-22.559 13.988,-29.41c-10.848,-1.14 -20.601,-2.857 -29.264,-5.14c-8.658,-2.286 -17.605,-5.996 -26.835,-11.14c-9.235,-5.137 -16.896,-11.516 -22.985,-19.126c-6.09,-7.614 -11.088,-17.61 -14.987,-29.979c-3.901,-12.374 -5.852,-26.648 -5.852,-42.826c0,-23.035 7.52,-42.637 22.557,-58.817c-7.044,-17.318 -6.379,-36.732 1.997,-58.24c5.52,-1.715 13.706,-0.428 24.554,3.853c10.85,4.283 18.794,7.952 23.84,10.994c5.046,3.041 9.089,5.618 12.135,7.708c17.705,-4.947 35.976,-7.421 54.818,-7.421c18.842,0 37.117,2.474 54.823,7.421l10.849,-6.849c7.419,-4.57 16.18,-8.758 26.262,-12.565c10.088,-3.805 17.802,-4.853 23.134,-3.138c8.562,21.509 9.325,40.922 2.279,58.24c15.036,16.18 22.559,35.787 22.559,58.817c0,16.178 -1.958,30.497 -5.853,42.966c-3.9,12.471 -8.941,22.457 -15.125,29.979c-6.191,7.521 -13.901,13.85 -23.131,18.986c-9.232,5.14 -18.182,8.85 -26.84,11.136c-8.662,2.286 -18.415,4.004 -29.263,5.146c9.894,8.562 14.842,22.077 14.842,40.539v60.237c0,3.422 1.19,6.279 3.572,8.562c2.379,2.279 6.136,2.95 11.276,1.995c44.163,-14.653 80.185,-41.062 108.068,-79.226c27.88,-38.161 41.825,-81.126 41.825,-128.906c-0.01,-39.771 -9.818,-76.454 -29.414,-110.049z"></path></g><g font-family="Inter, apple-system, BlinkMacSystemFont, &quot;Helvetica Neue&quot;, &quot;Segoe UI&quot;, &quot;Fira Sans&quot;, Roboto, Oxygen, Ubuntu, &quot;Droid Sans&quot;, Arial, sans-serif" font-weight="400" font-size="16" text-anchor="start"></g><g font-family="Inter, apple-system, BlinkMacSystemFont, &quot;Helvetica Neue&quot;, &quot;Segoe UI&quot;, &quot;Fira Sans&quot;, Roboto, Oxygen, Ubuntu, &quot;Droid Sans&quot;, Arial, sans-serif" font-weight="400" font-size="16" text-anchor="start"></g><g font-family="Inter, apple-system, BlinkMacSystemFont, &quot;Helvetica Neue&quot;, &quot;Segoe UI&quot;, &quot;Fira Sans&quot;, Roboto, Oxygen, Ubuntu, &quot;Droid Sans&quot;, Arial, sans-serif" font-weight="400" font-size="16" text-anchor="start"></g><g font-family="Inter, apple-system, BlinkMacSystemFont, &quot;Helvetica Neue&quot;, &quot;Segoe UI&quot;, &quot;Fira Sans&quot;, Roboto, Oxygen, Ubuntu, &quot;Droid Sans&quot;, Arial, sans-serif" font-weight="400" font-size="16" text-anchor="start"></g><g font-family="Inter, apple-system, BlinkMacSystemFont, &quot;Helvetica Neue&quot;, &quot;Segoe UI&quot;, &quot;Fira Sans&quot;, Roboto, Oxygen, Ubuntu, &quot;Droid Sans&quot;, Arial, sans-serif" font-weight="400" font-size="16" text-anchor="start"></g><g font-family="Inter, apple-system, BlinkMacSystemFont, &quot;Helvetica Neue&quot;, &quot;Segoe UI&quot;, &quot;Fira Sans&quot;, Roboto, Oxygen, Ubuntu, &quot;Droid Sans&quot;, Arial, sans-serif" font-weight="400" font-size="16" text-anchor="start"></g><g font-family="Inter, apple-system, BlinkMacSystemFont, &quot;Helvetica Neue&quot;, &quot;Segoe UI&quot;, &quot;Fira Sans&quot;, Roboto, Oxygen, Ubuntu, &quot;Droid Sans&quot;, Arial, sans-serif" font-weight="400" font-size="16" text-anchor="start"></g><g font-family="Inter, apple-system, BlinkMacSystemFont, &quot;Helvetica Neue&quot;, &quot;Segoe UI&quot;, &quot;Fira Sans&quot;, Roboto, Oxygen, Ubuntu, &quot;Droid Sans&quot;, Arial, sans-serif" font-weight="400" font-size="16" text-anchor="start"></g><g font-family="Inter, apple-system, BlinkMacSystemFont, &quot;Helvetica Neue&quot;, &quot;Segoe UI&quot;, &quot;Fira Sans&quot;, Roboto, Oxygen, Ubuntu, &quot;Droid Sans&quot;, Arial, sans-serif" font-weight="400" font-size="16" text-anchor="start"></g><g font-family="Inter, apple-system, BlinkMacSystemFont, &quot;Helvetica Neue&quot;, &quot;Segoe UI&quot;, &quot;Fira Sans&quot;, Roboto, Oxygen, Ubuntu, &quot;Droid Sans&quot;, Arial, sans-serif" font-weight="400" font-size="16" text-anchor="start"></g><g font-family="Inter, apple-system, BlinkMacSystemFont, &quot;Helvetica Neue&quot;, &quot;Segoe UI&quot;, &quot;Fira Sans&quot;, Roboto, Oxygen, Ubuntu, &quot;Droid Sans&quot;, Arial, sans-serif" font-weight="400" font-size="16" text-anchor="start"></g><g font-family="Inter, apple-system, BlinkMacSystemFont, &quot;Helvetica Neue&quot;, &quot;Segoe UI&quot;, &quot;Fira Sans&quot;, Roboto, Oxygen, Ubuntu, &quot;Droid Sans&quot;, Arial, sans-serif" font-weight="400" font-size="16" text-anchor="start"></g><g font-family="Inter, apple-system, BlinkMacSystemFont, &quot;Helvetica Neue&quot;, &quot;Segoe UI&quot;, &quot;Fira Sans&quot;, Roboto, Oxygen, Ubuntu, &quot;Droid Sans&quot;, Arial, sans-serif" font-weight="400" font-size="16" text-anchor="start"></g><g font-family="Inter, apple-system, BlinkMacSystemFont, &quot;Helvetica Neue&quot;, &quot;Segoe UI&quot;, &quot;Fira Sans&quot;, Roboto, Oxygen, Ubuntu, &quot;Droid Sans&quot;, Arial, sans-serif" font-weight="400" font-size="16" text-anchor="start"></g><g font-family="Inter, apple-system, BlinkMacSystemFont, &quot;Helvetica Neue&quot;, &quot;Segoe UI&quot;, &quot;Fira Sans&quot;, Roboto, Oxygen, Ubuntu, &quot;Droid Sans&quot;, Arial, sans-serif" font-weight="400" font-size="16" text-anchor="start"></g></g></g></g></g></svg>