<svg version="1.1" xmlns="http://www.w3.org/2000/svg" xmlns:xlink="http://www.w3.org/1999/xlink" width="50px" height="50px" viewBox="0,0,256,256"><g fill="#e3cbb7" fill-rule="nonzero" stroke="none" stroke-width="1" stroke-linecap="butt" stroke-linejoin="miter" stroke-miterlimit="10" stroke-dasharray="" stroke-dashoffset="0" font-family="none" font-weight="none" font-size="none" text-anchor="none" style="mix-blend-mode: normal"><path d="M0,256v-256h256v256z" id="bgRectangle"></path></g><g fill="#e3cbb7" fill-rule="nonzero" stroke="#e3cbb7" stroke-width="6" stroke-linecap="butt" stroke-linejoin="round" stroke-miterlimit="10" stroke-dasharray="" stroke-dashoffset="0" font-family="none" font-weight="none" font-size="none" text-anchor="none" style="mix-blend-mode: normal"><path transform="translate(-0.06,-0.06) scale(5.12,5.12)" d="M50.02344,25.01172c0,13.8125 -11.19922,25.01172 -25.01172,25.01172c-13.8125,0 -25.01172,-11.19922 -25.01172,-25.01172c0,-13.8125 11.19922,-25.01172 25.01172,-25.01172c13.8125,0 25.01172,11.19922 25.01172,25.01172z" id="strokeMainSVG"></path></g><g fill="#ffffff" fill-rule="nonzero" stroke="none" stroke-width="1" stroke-linecap="butt" stroke-linejoin="miter" stroke-miterlimit="10" stroke-dasharray="" stroke-dashoffset="0" font-family="none" font-weight="none" font-size="none" text-anchor="none" style="mix-blend-mode: normal"><g transform="translate(-0.06,-0.06) scale(5.12,5.12)"><g id="surface1"><path d="M25.01172,0c-13.8125,0 -25.01172,11.19922 -25.01172,25.01172c0,13.8125 11.19922,25.01172 25.01172,25.01172c13.8125,0 25.01172,-11.19922 25.01172,-25.01172c0,-13.8125 -11.19922,-25.01172 -25.01172,-25.01172zM38.21875,36.49219l-2.00391,2.00391c-0.35547,0.35938 -1.40234,0.58203 -1.4375,0.58203c-6.33594,0.05469 -12.43359,-2.43359 -16.91797,-6.91797c-4.49219,-4.49609 -6.98437,-10.61719 -6.91797,-16.97266c0,-0.00391 0.23047,-1.01953 0.58594,-1.375l2.00391,-2.00391c0.73438,-0.73437 2.14063,-1.06641 3.125,-0.73828l0.42188,0.14063c0.98438,0.32812 2.01563,1.41797 2.28906,2.41797l1.00781,3.69922c0.26953,1.00391 -0.09766,2.43359 -0.82812,3.16406l-1.33984,1.33984c1.31641,4.85938 5.12891,8.67188 9.98828,9.98828l1.33594,-1.33594c0.73828,-0.73828 2.16406,-1.10547 3.16797,-0.83203l3.69531,1.01172c1.00391,0.27344 2.08984,1.30078 2.41797,2.28125l0.14063,0.42969c0.32813,0.98047 -0.00391,2.39063 -0.73437,3.11719zM38.21875,36.49219"></path></g></g></g></svg>