<svg version="1.1" xmlns="http://www.w3.org/2000/svg" xmlns:xlink="http://www.w3.org/1999/xlink" width="552.8px" height="205.3px" viewBox="0,0,256,95.0625"><defs><clipPath id="clip-1"><ellipse cx="294.97772" cy="307.27567" transform="rotate(-37.001)" rx="63" ry="51.8" id="SVGID_2_" fill="none" stroke="none" stroke-width="1"></ellipse></clipPath><clipPath id="clip-2"><path transform="translate(43.60581,267.02625) rotate(-37.001)" d="M330.9,-14.2h179.8v165.1h-179.8z" id="SVGID_4_" fill="none" stroke="none" stroke-width="1"></path></clipPath><clipPath id="clip-3"><ellipse cx="294.97772" cy="307.27567" transform="rotate(-37.001)" rx="63" ry="51.8" id="SVGID_6_" fill="none" stroke="none" stroke-width="1"></ellipse></clipPath><clipPath id="clip-4"><path transform="translate(43.3279,267.09744) rotate(-37)" d="M357.8,17h125.9v103.7h-125.9z" id="SVGID_8_" fill="none" stroke="none" stroke-width="1"></path></clipPath><clipPath id="clip-5"><path transform="translate(43.3279,267.09744) rotate(-37)" d="M357.8,17h125.9v103.7h-125.9z" id="SVGID_8_" stroke="none" stroke-width="1"></path></clipPath><clipPath id="clip-6"><path transform="translate(43.3279,267.09744) rotate(-37)" d="M357.8,17h125.9v103.7h-125.9z" id="SVGID_10_" fill="none" stroke="none" stroke-width="1"></path></clipPath><clipPath id="clip-7"><path transform="translate(43.3279,267.09744) rotate(-37)" d="M357.8,17h125.9v103.7h-125.9z" id="SVGID_10_" stroke="none" stroke-width="1"></path></clipPath></defs><g fill="#e3cbb7" fill-rule="nonzero" stroke="none" stroke-width="1" stroke-linecap="butt" stroke-linejoin="miter" stroke-miterlimit="10" stroke-dasharray="" stroke-dashoffset="0" font-family="none" font-weight="none" font-size="none" text-anchor="none" style="mix-blend-mode: normal"><path d="M0,95.0625v-95.0625h256v95.0625z" id="bgRectangle"></path></g><g fill="#e3cbb7" fill-rule="nonzero" stroke="#e3cbb7" stroke-width="26" stroke-linecap="butt" stroke-linejoin="round" stroke-miterlimit="10" stroke-dasharray="" stroke-dashoffset="0" font-family="none" font-weight="none" font-size="none" text-anchor="none" style="mix-blend-mode: normal"><path transform="translate(0,17.50919) scale(0.4631,0.39058)" d="M285.4,68l21.51258,-1.39055l-7.58772,-10.06888l3.2843,-2.47498c-2.32522,-1.25738 -4.29704,-2.61152 -5.90915,-4.06559c-5.1,-4.3 -8,-10.6 -7.8,-17.3c0,-4.6 1.4,-9.2 4,-13c3,-4.3 7.1,-7.7 12,-9.6c5.3,-2.3 12.7,-3.5 22,-3.5c11.4,0 20.1,2.1 26.1,6.4c0.70167,0.49117 1.37051,1.01789 2.00637,1.58001l87.91126,-66.24829l99.36196,131.85299l-45.40357,34.21529h12.82398v67.4h43.1v22h-70.8v-25.05213c-0.65988,1.89808 -1.42707,3.68109 -2.3,5.35213c-3.4,6.6 -8.7,12 -15.2,15.6c-6.7,3.7 -15,5.6 -24.9,5.6c-10.1,0 -18.4,-1.6 -25,-4.8c-6.01252,-3.00626 -11.08687,-7.49793 -14.73919,-12.99114l-1.17399,0.8847l-38.35016,-50.89054c2.44782,5.99323 3.66335,12.95889 3.66335,20.89698c0,10.5 -1.8,19 -5.3,25.7c-3.4,6.6 -8.7,12 -15.2,15.6c-6.7,3.7 -15,5.6 -24.9,5.6c-10.1,0 -18.4,-1.6 -25,-4.8c-6.8,-3.4 -12.4,-8.7 -16.1,-15.2c-0.89583,-1.52946 -1.69618,-3.14008 -2.4,-4.8329v23.3329h-27.8v-36.2h-30.2v36.2h-27.6l0,-89.4h27.6v31.3h30.2v-31.3h27.8v23.29612c2.00953,-4.87361 4.81242,-9.10854 8.4,-12.69612c8.1,-8.1 19.5,-12.2 34,-12.2c12.95271,0 23.26048,3.0228 31.05468,9.06839l-17.24038,-22.87793c-1.36496,0.07287 -2.76988,0.10954 -4.2143,0.10954c-15.2,0 -25.7,-2.9 -31.6,-8.8c-5.9,-5.9 -9.4,-13.3 -10.1,-22.3zM333.3,26c-2.3,-1.9 -5.3,-2.8 -9.2,-2.8c-3.2,0 -5.6,0.7 -7.2,2c-1.5,1.2 -2.5,3 -2.4,5c0,1.5 0.8,2.9 2,3.8c1.23347,1.13859 4.0874,2.18714 8.56181,3.14568l10.74244,-8.0953c-0.67585,-1.21096 -1.50513,-2.22502 -2.50425,-3.05038zM6.3,8.2h46.1c8.5,0 15.1,0.7 19.6,2.2c4.4,1.4 8.3,4.3 10.9,8.2c2.9,4.3 4.3,9.3 4.2,14.5c0.3,8.8 -4.2,17.2 -11.9,21.6c-3,1.7 -6.3,2.9 -9.7,3.5c2.5,0.7 5,1.9 7.2,3.3c1.7,1.4 3.1,3 4.4,4.7c1.5,1.7 2.8,3.6 3.9,5.6l13.4,25.9h-31.4l-14.8,-27.5c-1.9,-3.5 -3.5,-5.8 -5,-6.9c-2,-1.4 -4.4,-2.1 -6.8,-2.1h-2.4v36.3h-27.7zM0,174.2l26.3,-1.7c0.6,4.3 1.7,7.5 3.5,9.8c2.8,3.6 6.9,5.5 12.2,5.5c3.9,0 7,-0.9 9.1,-2.8c2,-1.6 3.2,-3.9 3.2,-6.4c0,-2.4 -1.1,-4.7 -3,-6.2c-2,-1.8 -6.7,-3.6 -14.2,-5.2c-12.1,-2.7 -20.8,-6.3 -25.9,-10.9c-5.1,-4.3 -8,-10.6 -7.8,-17.3c0,-4.6 1.4,-9.2 4,-13c3,-4.3 7.1,-7.7 12,-9.6c5.3,-2.3 12.7,-3.5 22,-3.5c11.4,0 20.1,2.1 26.1,6.4c4.21002,3.01718 7.18919,7.21599 8.97206,12.66551c1.55214,-2.64253 3.39413,-5.03169 5.52794,-7.16551c7.9,-7.9 19,-11.9 33.4,-11.9c11.3,0 20.1,2.3 26.6,6.8c6.4,4.6 11.2,11.6 14.4,21l-24.4,5.4c-0.6,-2.1 -1.5,-4.2 -2.7,-6c-1.5,-2.1 -3.4,-3.7 -5.7,-4.9c-2.3,-1.2 -4.9,-1.7 -7.5,-1.7c-6.3,0 -11.1,2.5 -14.4,7.6c-2.5,3.7 -3.8,9.6 -3.8,17.6c0,9.9 1.5,16.7 4.5,20.4c3,3.7 7.2,5.5 12.7,5.5c5.3,0 9.3,-1.5 12,-4.4c2.7,-3.1 4.7,-7.4 5.9,-13l24.2,7.3c-1.3,6.1 -4,11.9 -7.7,17c-3.4,4.5 -7.9,8 -13,10.3c-5.2,2.3 -11.8,3.5 -19.8,3.5c-9.7,0 -17.7,-1.4 -23.8,-4.2c-5.70264,-2.57539 -10.64389,-7.01197 -14.90155,-13.23193c-0.48197,0.93583 -1.01545,1.84803 -1.59845,2.73193c-3.3,4.9 -7.9,8.7 -13.3,11c-5.7,2.5 -12.9,3.8 -21.5,3.8c-15.2,0 -25.7,-2.9 -31.6,-8.8c-5.9,-6 -9.2,-13.4 -10,-22.4zM52.1,141.1c-0.7,-4 -2.1,-6.9 -4.4,-8.8c-2.2,-1.9 -5.3,-2.8 -9.2,-2.7c-3.2,0 -5.6,0.7 -7.2,2.1c-1.6,1.2 -2.5,3 -2.4,5c0,1.5 0.8,2.9 2,3.8c1.3,1.2 4.4,2.3 9.3,3.3c12.1,2.6 20.7,5.2 26,7.9c1.50089,0.7646 2.88148,1.57732 4.14179,2.43816c0.31923,-5.21879 1.17802,-9.967 2.5815,-14.2395zM482,139.339l0,-13.72871l-5.12858,3.8648c2.12124,2.95509 3.833,6.24306 5.12858,9.86391z" id="strokeMainSVG"></path></g><g fill="none" fill-rule="nonzero" stroke="none" stroke-width="none" stroke-linecap="butt" stroke-linejoin="miter" stroke-miterlimit="10" stroke-dasharray="" stroke-dashoffset="0" font-family="none" font-weight="none" font-size="none" text-anchor="none" style="mix-blend-mode: normal"><g transform="translate(0,2.61365) scale(0.4631,0.4631)"><path d="M285.4,68l26.3,-1.7c0.6,4.3 1.7,7.5 3.5,9.8c2.9,3.6 6.9,5.4 12.2,5.4c3.9,0 7,-0.9 9.1,-2.8c2,-1.5 3.2,-3.9 3.2,-6.4c0,-2.4 -1.1,-4.7 -3,-6.2c-2,-1.8 -6.7,-3.6 -14.1,-5.2c-12.1,-2.7 -20.8,-6.3 -25.9,-10.9c-5.1,-4.3 -8,-10.6 -7.8,-17.3c0,-4.6 1.4,-9.2 4,-13c3,-4.3 7.1,-7.7 12,-9.6c5.3,-2.3 12.7,-3.5 22,-3.5c11.4,0 20.1,2.1 26.1,6.4c6,4.2 9.6,11 10.7,20.3l-26,1.5c-0.7,-4 -2.1,-6.9 -4.4,-8.8c-2.3,-1.9 -5.3,-2.8 -9.2,-2.8c-3.2,0 -5.6,0.7 -7.2,2c-1.5,1.2 -2.5,3 -2.4,5c0,1.5 0.8,2.9 2,3.8c1.3,1.2 4.4,2.3 9.3,3.3c12.1,2.6 20.7,5.2 26,7.9c5.3,2.7 9.1,6 11.4,9.9c2.4,4 3.6,8.6 3.5,13.3c0,5.6 -1.6,11.2 -4.8,15.9c-3.3,4.9 -7.9,8.7 -13.3,11c-5.7,2.5 -12.9,3.8 -21.5,3.8c-15.2,0 -25.7,-2.9 -31.6,-8.8c-5.9,-5.9 -9.4,-13.3 -10.1,-22.3zM6.3,97.6v-89.4h46.1c8.5,0 15.1,0.7 19.6,2.2c4.4,1.4 8.3,4.3 10.9,8.2c2.9,4.3 4.3,9.3 4.2,14.5c0.3,8.8 -4.2,17.2 -11.9,21.6c-3,1.7 -6.3,2.9 -9.7,3.5c2.5,0.7 5,1.9 7.2,3.3c1.7,1.4 3.1,3 4.4,4.7c1.5,1.7 2.8,3.6 3.9,5.6l13.4,25.9h-31.4l-14.8,-27.5c-1.9,-3.5 -3.5,-5.8 -5,-6.9c-2,-1.4 -4.4,-2.1 -6.8,-2.1h-2.4v36.3h-27.7zM34,44.4h11.7c2.5,-0.2 4.9,-0.6 7.3,-1.2c1.8,-0.3 3.4,-1.3 4.5,-2.8c2.7,-3.6 2.3,-8.7 -1,-11.8c-1.8,-1.5 -5.3,-2.3 -10.3,-2.3h-12.2zM0,174.2l26.3,-1.7c0.6,4.3 1.7,7.5 3.5,9.8c2.8,3.6 6.9,5.5 12.2,5.5c3.9,0 7,-0.9 9.1,-2.8c2,-1.6 3.2,-3.9 3.2,-6.4c0,-2.4 -1.1,-4.7 -3,-6.2c-2,-1.8 -6.7,-3.6 -14.2,-5.2c-12.1,-2.7 -20.8,-6.3 -25.9,-10.9c-5.1,-4.3 -8,-10.6 -7.8,-17.3c0,-4.6 1.4,-9.2 4,-13c3,-4.3 7.1,-7.7 12,-9.6c5.3,-2.3 12.7,-3.5 22,-3.5c11.4,0 20.1,2.1 26.1,6.4c6,4.3 9.5,11 10.6,20.3l-26,1.5c-0.7,-4 -2.1,-6.9 -4.4,-8.8c-2.2,-1.9 -5.3,-2.8 -9.2,-2.7c-3.2,0 -5.6,0.7 -7.2,2.1c-1.6,1.2 -2.5,3 -2.4,5c0,1.5 0.8,2.9 2,3.8c1.3,1.2 4.4,2.3 9.3,3.3c12.1,2.6 20.7,5.2 26,7.9c5.3,2.7 9.1,6 11.4,9.9c2.4,4 3.6,8.6 3.6,13.2c0,5.6 -1.7,11.1 -4.8,15.8c-3.3,4.9 -7.9,8.7 -13.3,11c-5.7,2.5 -12.9,3.8 -21.5,3.8c-15.2,0 -25.7,-2.9 -31.6,-8.8c-5.9,-6 -9.2,-13.4 -10,-22.4z" fill="#514444" stroke="none" stroke-width="1"></path><path d="M133,167.2l24.2,7.3c-1.3,6.1 -4,11.9 -7.7,17c-3.4,4.5 -7.9,8 -13,10.3c-5.2,2.3 -11.8,3.5 -19.8,3.5c-9.7,0 -17.7,-1.4 -23.8,-4.2c-6.2,-2.8 -11.5,-7.8 -16,-14.9c-4.5,-7.1 -6.7,-16.2 -6.7,-27.3c0,-14.8 3.9,-26.2 11.8,-34.1c7.9,-7.9 19,-11.9 33.4,-11.9c11.3,0 20.1,2.3 26.6,6.8c6.4,4.6 11.2,11.6 14.4,21l-24.4,5.4c-0.6,-2.1 -1.5,-4.2 -2.7,-6c-1.5,-2.1 -3.4,-3.7 -5.7,-4.9c-2.3,-1.2 -4.9,-1.7 -7.5,-1.7c-6.3,0 -11.1,2.5 -14.4,7.6c-2.5,3.7 -3.8,9.6 -3.8,17.6c0,9.9 1.5,16.7 4.5,20.4c3,3.7 7.2,5.5 12.7,5.5c5.3,0 9.3,-1.5 12,-4.4c2.7,-3.1 4.7,-7.4 5.9,-13zM189.5,114.4h27.6v31.3h30.2v-31.3h27.8v89.4h-27.8v-36.2h-30.2v36.2h-27.6z" fill="#514444" stroke="none" stroke-width="1"></path><path d="M271.3,159.1c0,-14.6 4.1,-26 12.2,-34.1c8.1,-8.1 19.5,-12.2 34,-12.2c14.9,0 26.3,4 34.4,12c8.1,8 12.1,19.2 12.1,33.6c0,10.5 -1.8,19 -5.3,25.7c-3.4,6.6 -8.7,12 -15.2,15.6c-6.7,3.7 -15,5.6 -24.9,5.6c-10.1,0 -18.4,-1.6 -25,-4.8c-6.8,-3.4 -12.4,-8.7 -16.1,-15.2c-4.1,-7 -6.2,-15.7 -6.2,-26.2zM298.9,159.2c0,9 1.7,15.5 5,19.5c3.3,3.9 7.9,5.9 13.7,5.9c5.9,0 10.5,-1.9 13.8,-5.8c3.3,-3.9 4.9,-10.8 4.9,-20.8c0,-8.4 -1.7,-14.6 -5.1,-18.4c-3.4,-3.9 -8,-5.8 -13.8,-5.8c-5.1,-0.2 -10,2 -13.4,5.9c-3.4,3.9 -5.1,10.4 -5.1,19.5zM392.3,159.1c0,-14.6 4.1,-26 12.2,-34.1c8.1,-8.1 19.5,-12.2 34,-12.2c14.9,0 26.4,4 34.4,12c8,8 12.1,19.2 12.1,33.6c0,10.5 -1.8,19 -5.3,25.7c-3.4,6.6 -8.7,12 -15.2,15.6c-6.7,3.7 -15,5.6 -24.9,5.6c-10.1,0 -18.4,-1.6 -25,-4.8c-6.8,-3.4 -12.4,-8.7 -16.1,-15.2c-4.1,-7 -6.2,-15.7 -6.2,-26.2zM419.9,159.2c0,9 1.7,15.5 5,19.5c3.3,3.9 7.9,5.9 13.7,5.9c5.9,0 10.5,-1.9 13.8,-5.8c3.3,-3.9 4.9,-10.8 4.9,-20.8c0,-8.4 -1.7,-14.6 -5.1,-18.4c-3.4,-3.9 -8,-5.8 -13.8,-5.8c-5.1,-0.2 -10.1,2 -13.4,5.9c-3.4,3.9 -5.1,10.4 -5.1,19.5z" fill="#514444" stroke="none" stroke-width="1"></path><path d="M482.1,114.4h27.6v67.4h43.1v22h-70.8v-89.4z" fill="#514444" stroke="none" stroke-width="1"></path><ellipse cx="294.97772" cy="307.27567" transform="rotate(-37.001)" rx="63" ry="51.8" fill="#ffffff" stroke="none" stroke-width="1"></ellipse><g clip-path="url(#clip-1)"><path transform="translate(43.60581,267.02625) rotate(-37.001)" d="M330.9,-14.2h179.8v165.1h-179.8z" fill="#ffffff" stroke="none" stroke-width="1"></path><g id="Layer_2_1_"><g clip-path="url(#clip-2)" id="Layer_1-2"><ellipse cx="294.97772" cy="307.27567" transform="rotate(-37.001)" rx="63" ry="51.8" fill="#ffffff" stroke="none" stroke-width="1"></ellipse><g clip-path="url(#clip-3)"><path transform="translate(43.3279,267.09744) rotate(-37)" d="M357.8,17h125.9v103.7h-125.9z" fill="#ffffff" stroke="none" stroke-width="1"></path><g clip-path="url(#clip-4)"><ellipse cx="294.97772" cy="307.27567" transform="rotate(-37.001)" rx="63" ry="51.8" fill="#ffffff" stroke="#514444" stroke-width="4"></ellipse></g><g transform="translate(43.3279,267.09744) rotate(-37)" clip-path="url(#clip-5)" fill="none"><path d="M357.8,17h125.9v103.7h-125.9z" stroke="#514444" stroke-width="4"></path></g><ellipse cx="294.97772" cy="307.27567" transform="rotate(-37.001)" rx="63" ry="51.8" fill="none" stroke="#514444" stroke-width="4"></ellipse><path transform="translate(43.3279,267.09744) rotate(-37)" d="M357.8,17h125.9v103.7h-125.9z" fill="#ffffff" stroke="none" stroke-width="1"></path><g clip-path="url(#clip-6)"><ellipse cx="294.97772" cy="307.27567" transform="rotate(-37.001)" rx="63" ry="51.8" fill="#ffffff" stroke="#514444" stroke-width="4"></ellipse></g><g transform="translate(43.3279,267.09744) rotate(-37)" clip-path="url(#clip-7)" fill="none"><path d="M357.8,17h125.9v103.7h-125.9z" stroke="#514444" stroke-width="4"></path></g><path transform="translate(43.60581,267.02625) rotate(-37.001)" d="M330.9,-14.2h179.8v165.1h-179.8z" fill="none" stroke="#514444" stroke-width="4"></path></g><ellipse cx="294.97772" cy="307.27567" transform="rotate(-37.001)" rx="63" ry="51.8" fill="none" stroke="#514444" stroke-width="4"></ellipse><path d="M392.4,61.3l10,-7l12.3,17.5c2.1,2.8 3.7,5.8 4.9,9.1c0.7,2.5 0.5,5.2 -0.5,7.6c-1.3,3 -3.4,5.5 -6.2,7.3c-3.3,2.3 -6.1,3.6 -8.5,4c-2.3,0.4 -4.7,0 -6.9,-1c-2.4,-1.2 -4.5,-2.9 -6.1,-5.1l8.6,-8c0.7,1.1 1.6,2.1 2.6,2.9c0.7,0.5 1.5,0.8 2.4,0.8c0.7,0 1.4,-0.3 1.9,-0.7c1,-0.6 1.7,-1.8 1.6,-3c-0.3,-1.7 -1,-3.4 -2.1,-4.7zM422.4,72.4l9.1,-7.2c1,1.2 2.3,2.1 3.7,2.6c2,0.6 4.1,0.2 5.8,-1.1c1.2,-0.8 2.2,-1.9 2.6,-3.3c0.6,-1.8 -0.4,-3.8 -2.2,-4.4c-0.3,-0.1 -0.6,-0.2 -0.9,-0.2c-1.2,-0.1 -3.3,0.4 -6.4,1.7c-5.1,2.1 -9.1,2.9 -12.1,2.6c-2.9,-0.3 -5.6,-1.8 -7.2,-4.3c-1.2,-1.7 -1.8,-3.7 -1.9,-5.7c0,-2.3 0.6,-4.6 1.9,-6.5c1.9,-2.7 4.2,-5 7,-6.8c4.2,-2.9 7.9,-4.3 11.1,-4.3c3.2,0 6.2,1.5 9,4.6l-9,7.1c-1.8,-2.3 -5.2,-2.8 -7.5,-1l-0.3,0.3c-1,0.6 -1.7,1.5 -2.1,2.6c-0.3,0.8 -0.1,1.7 0.4,2.4c0.4,0.5 1,0.9 1.7,0.9c0.8,0.1 2.2,-0.3 4.2,-1.2c5,-2.1 8.8,-3.3 11.4,-3.7c2.2,-0.4 4.5,-0.2 6.6,0.7c1.9,0.8 3.5,2.2 4.6,3.9c1.4,2 2.2,4.4 2.3,6.9c0.1,2.6 -0.6,5.1 -2,7.3c-1.8,2.7 -4.1,5 -6.8,6.8c-5.5,3.8 -10,5.4 -13.6,4.8c-3.9,-0.6 -7.1,-2.6 -9.4,-5.5z" fill="#514444" stroke="none" stroke-width="1"></path></g></g></g></g></g></svg>