<svg version="1.1" xmlns="http://www.w3.org/2000/svg" xmlns:xlink="http://www.w3.org/1999/xlink" width="50px" height="50px" viewBox="0,0,256,256"><g fill="#e3cbb7" fill-rule="nonzero" stroke="none" stroke-width="1" stroke-linecap="butt" stroke-linejoin="miter" stroke-miterlimit="10" stroke-dasharray="" stroke-dashoffset="0" font-family="none" font-weight="none" font-size="none" text-anchor="none" style="mix-blend-mode: normal"><path d="M0,256v-256h256v256z" id="bgRectangle"></path></g><g fill="#e3cbb7" fill-rule="nonzero" stroke="#e3cbb7" stroke-width="6" stroke-linecap="butt" stroke-linejoin="round" stroke-miterlimit="10" stroke-dasharray="" stroke-dashoffset="0" font-family="none" font-weight="none" font-size="none" text-anchor="none" style="mix-blend-mode: normal"><path transform="scale(5.12,5.12)" d="M49.21875,25c0,13.37891 -10.83984,24.21875 -24.21875,24.21875c-13.37891,0 -24.21875,-10.83984 -24.21875,-24.21875c0,-13.37891 10.83984,-24.21875 24.21875,-24.21875c13.37891,0 24.21875,10.83984 24.21875,24.21875z" id="strokeMainSVG"></path></g><g fill="#ffffff" fill-rule="nonzero" stroke="none" stroke-width="1" stroke-linecap="butt" stroke-linejoin="miter" stroke-miterlimit="10" stroke-dasharray="" stroke-dashoffset="0" font-family="none" font-weight="none" font-size="none" text-anchor="none" style="mix-blend-mode: normal"><g transform="scale(5.12,5.12)"><g id="surface1"><path d="M25,0.78125c-13.37891,0 -24.21875,10.83984 -24.21875,24.21875c0,13.37891 10.83984,24.21875 24.21875,24.21875c13.37891,0 24.21875,-10.83984 24.21875,-24.21875c0,-13.37891 -10.83984,-24.21875 -24.21875,-24.21875zM36.89453,17.375l-3.97266,18.73047c-0.29687,1.32813 -1.08594,1.64844 -2.1875,1.02344l-6.05469,-4.46094l-2.92188,2.8125c-0.32031,0.32031 -0.59375,0.59375 -1.21875,0.59375l0.42969,-6.16016l11.21875,-10.14062c0.48828,-0.42969 -0.10937,-0.67188 -0.75391,-0.24219l-13.86719,8.73047l-5.97656,-1.86719c-1.29687,-0.41016 -1.32812,-1.29687 0.27344,-1.92187l23.35156,-9.00391c1.08203,-0.39062 2.03125,0.26172 1.67969,1.90234zM36.89453,17.375"></path></g></g></g></svg>