<?xml version="1.0" encoding="UTF-8"?>
<svg xmlns="http://www.w3.org/2000/svg" xmlns:xlink="http://www.w3.org/1999/xlink" width="100px" height="100px" viewBox="0 0 100 100" version="1.1">
<g id="surface1">
<path style=" stroke:none;fill-rule:evenodd;fill:rgb(0%,0%,0%);fill-opacity:1;" d="M 50 24.800781 C 36.082031 24.800781 24.800781 36.367188 24.800781 50.640625 C 24.800781 62.0625 32.023438 71.734375 42.035156 75.15625 C 43.296875 75.390625 43.757812 74.59375 43.757812 73.90625 C 43.757812 73.289062 43.734375 71.667969 43.722656 69.507812 C 36.714844 71.074219 35.230469 66.042969 35.230469 66.042969 C 34.082031 63.0625 32.425781 62.261719 32.425781 62.261719 C 30.144531 60.65625 32.597656 60.6875 32.597656 60.6875 C 35.128906 60.867188 36.453125 63.355469 36.453125 63.355469 C 38.703125 67.304688 42.351562 66.167969 43.789062 65.503906 C 44.015625 63.839844 44.667969 62.691406 45.386719 62.050781 C 39.796875 61.398438 33.914062 59.179688 33.914062 49.28125 C 33.914062 46.457031 34.890625 44.152344 36.5 42.351562 C 36.242188 41.699219 35.375 39.066406 36.746094 35.511719 C 36.746094 35.511719 38.863281 34.8125 43.675781 38.15625 C 45.691406 37.582031 47.839844 37.300781 49.988281 37.289062 C 52.125 37.300781 54.285156 37.582031 56.300781 38.15625 C 61.113281 34.8125 63.21875 35.511719 63.21875 35.511719 C 64.589844 39.066406 63.726562 41.699219 63.464844 42.351562 C 65.074219 44.164062 66.054688 46.46875 66.054688 49.28125 C 66.054688 59.203125 60.160156 61.386719 54.546875 62.027344 C 55.445312 62.824219 56.253906 64.402344 56.253906 66.808594 C 56.253906 70.261719 56.222656 73.050781 56.222656 73.894531 C 56.222656 74.582031 56.671875 75.390625 57.953125 75.132812 C 67.988281 71.726562 75.199219 62.050781 75.199219 50.640625 C 75.199219 36.367188 63.917969 24.800781 50 24.800781 Z M 50 24.800781 "/>
</g>
</svg>
