<?xml version="1.0" encoding="UTF-8"?>
<svg xmlns="http://www.w3.org/2000/svg" xmlns:xlink="http://www.w3.org/1999/xlink" width="100px" height="100px" viewBox="0 0 100 37" version="1.1">
<defs>
<clipPath id="clip1">
  <path d="M 65 2 L 87 2 L 87 23 L 65 23 Z M 65 2 "/>
</clipPath>
<clipPath id="clip2">
  <path d="M 85.105469 5.398438 C 81.996094 1.28125 75.410156 1.003906 70.390625 4.777344 C 65.375 8.550781 63.828125 14.949219 66.933594 19.066406 C 70.042969 23.183594 76.632812 23.460938 81.648438 19.6875 C 86.667969 15.914062 88.214844 9.515625 85.105469 5.398438 Z M 85.105469 5.398438 "/>
</clipPath>
<clipPath id="clip3">
  <path d="M 54.140625 10.191406 L 80.066406 -9.3125 L 98.007812 14.453125 L 72.082031 33.953125 Z M 54.140625 10.191406 "/>
</clipPath>
<clipPath id="clip4">
  <path d="M 85.105469 5.398438 C 81.996094 1.28125 75.410156 1.003906 70.390625 4.777344 C 65.375 8.550781 63.828125 14.949219 66.933594 19.066406 C 70.042969 23.183594 76.632812 23.460938 81.648438 19.6875 C 86.667969 15.914062 88.214844 9.515625 85.105469 5.398438 Z M 85.105469 5.398438 "/>
</clipPath>
<clipPath id="clip5">
  <path d="M 61.359375 11.777344 L 79.515625 -1.878906 L 90.785156 13.046875 L 72.628906 26.703125 Z M 61.359375 11.777344 "/>
</clipPath>
<clipPath id="clip6">
  <path d="M 65 2 L 87 2 L 87 23 L 65 23 Z M 65 2 "/>
</clipPath>
<clipPath id="clip7">
  <path d="M 85.105469 5.398438 C 81.996094 1.28125 75.410156 1.003906 70.390625 4.777344 C 65.375 8.550781 63.828125 14.949219 66.933594 19.066406 C 70.042969 23.183594 76.632812 23.460938 81.648438 19.6875 C 86.667969 15.914062 88.214844 9.515625 85.105469 5.398438 Z M 85.105469 5.398438 "/>
</clipPath>
<clipPath id="clip8">
  <path d="M 54.140625 10.191406 L 80.066406 -9.3125 L 98.007812 14.453125 L 72.082031 33.953125 Z M 54.140625 10.191406 "/>
</clipPath>
<clipPath id="clip9">
  <path d="M 85.105469 5.398438 C 81.996094 1.28125 75.410156 1.003906 70.390625 4.777344 C 65.375 8.550781 63.828125 14.949219 66.933594 19.066406 C 70.042969 23.183594 76.632812 23.460938 81.648438 19.6875 C 86.667969 15.914062 88.214844 9.515625 85.105469 5.398438 Z M 85.105469 5.398438 "/>
</clipPath>
<clipPath id="clip10">
  <path d="M 63.945312 20.742188 L 70.214844 -1.070312 L 88.210938 4.082031 L 81.945312 25.890625 Z M 63.945312 20.742188 "/>
</clipPath>
<clipPath id="clip11">
  <path d="M 65 2 L 87 2 L 87 23 L 65 23 Z M 65 2 "/>
</clipPath>
<clipPath id="clip12">
  <path d="M 85.105469 5.398438 C 81.996094 1.28125 75.410156 1.003906 70.390625 4.777344 C 65.375 8.550781 63.828125 14.949219 66.933594 19.066406 C 70.042969 23.183594 76.632812 23.460938 81.648438 19.6875 C 86.667969 15.914062 88.214844 9.515625 85.105469 5.398438 Z M 85.105469 5.398438 "/>
</clipPath>
<clipPath id="clip13">
  <path d="M 54.140625 10.191406 L 80.066406 -9.3125 L 98.007812 14.453125 L 72.082031 33.953125 Z M 54.140625 10.191406 "/>
</clipPath>
<clipPath id="clip14">
  <path d="M 85.105469 5.398438 C 81.996094 1.28125 75.410156 1.003906 70.390625 4.777344 C 65.375 8.550781 63.828125 14.949219 66.933594 19.066406 C 70.042969 23.183594 76.632812 23.460938 81.648438 19.6875 C 86.667969 15.914062 88.214844 9.515625 85.105469 5.398438 Z M 85.105469 5.398438 "/>
</clipPath>
<clipPath id="clip15">
  <path d="M 61.359375 11.777344 L 79.515625 -1.878906 L 90.785156 13.046875 L 72.628906 26.703125 Z M 61.359375 11.777344 "/>
</clipPath>
<clipPath id="clip16">
  <path d="M 65 2 L 87 2 L 87 23 L 65 23 Z M 65 2 "/>
</clipPath>
<clipPath id="clip17">
  <path d="M 85.105469 5.398438 C 81.996094 1.28125 75.410156 1.003906 70.390625 4.777344 C 65.375 8.550781 63.828125 14.949219 66.933594 19.066406 C 70.042969 23.183594 76.632812 23.460938 81.648438 19.6875 C 86.667969 15.914062 88.214844 9.515625 85.105469 5.398438 Z M 85.105469 5.398438 "/>
</clipPath>
<clipPath id="clip18">
  <path d="M 54.140625 10.191406 L 80.066406 -9.3125 L 98.007812 14.453125 L 72.082031 33.953125 Z M 54.140625 10.191406 "/>
</clipPath>
<clipPath id="clip19">
  <path d="M 85.105469 5.398438 C 81.996094 1.28125 75.410156 1.003906 70.390625 4.777344 C 65.375 8.550781 63.828125 14.949219 66.933594 19.066406 C 70.042969 23.183594 76.632812 23.460938 81.648438 19.6875 C 86.667969 15.914062 88.214844 9.515625 85.105469 5.398438 Z M 85.105469 5.398438 "/>
</clipPath>
<clipPath id="clip20">
  <path d="M 63.945312 20.742188 L 70.214844 -1.070312 L 88.210938 4.082031 L 81.945312 25.890625 Z M 63.945312 20.742188 "/>
</clipPath>
<clipPath id="clip21">
  <path d="M 65 2 L 87 2 L 87 23 L 65 23 Z M 65 2 "/>
</clipPath>
<clipPath id="clip22">
  <path d="M 85.105469 5.398438 C 81.996094 1.28125 75.410156 1.003906 70.390625 4.777344 C 65.375 8.550781 63.828125 14.949219 66.933594 19.066406 C 70.042969 23.183594 76.632812 23.460938 81.648438 19.6875 C 86.667969 15.914062 88.214844 9.515625 85.105469 5.398438 Z M 85.105469 5.398438 "/>
</clipPath>
<clipPath id="clip23">
  <path d="M 54.140625 10.191406 L 80.066406 -9.3125 L 98.007812 14.453125 L 72.082031 33.953125 Z M 54.140625 10.191406 "/>
</clipPath>
<clipPath id="clip24">
  <path d="M 85.105469 5.398438 C 81.996094 1.28125 75.410156 1.003906 70.390625 4.777344 C 65.375 8.550781 63.828125 14.949219 66.933594 19.066406 C 70.042969 23.183594 76.632812 23.460938 81.648438 19.6875 C 86.667969 15.914062 88.214844 9.515625 85.105469 5.398438 Z M 85.105469 5.398438 "/>
</clipPath>
<clipPath id="clip25">
  <path d="M 65 2 L 87 2 L 87 23 L 65 23 Z M 65 2 "/>
</clipPath>
<clipPath id="clip26">
  <path d="M 85.105469 5.398438 C 81.996094 1.28125 75.410156 1.003906 70.390625 4.777344 C 65.375 8.550781 63.828125 14.949219 66.933594 19.066406 C 70.042969 23.183594 76.632812 23.460938 81.648438 19.6875 C 86.667969 15.914062 88.214844 9.515625 85.105469 5.398438 Z M 85.105469 5.398438 "/>
</clipPath>
<clipPath id="clip27">
  <path d="M 54.140625 10.191406 L 80.066406 -9.3125 L 98.007812 14.453125 L 72.082031 33.953125 Z M 54.140625 10.191406 "/>
</clipPath>
<clipPath id="clip28">
  <path d="M 70 6 L 83 6 L 83 19 L 70 19 Z M 70 6 "/>
</clipPath>
<clipPath id="clip29">
  <path d="M 85.105469 5.398438 C 81.996094 1.28125 75.410156 1.003906 70.390625 4.777344 C 65.375 8.550781 63.828125 14.949219 66.933594 19.066406 C 70.042969 23.183594 76.632812 23.460938 81.648438 19.6875 C 86.667969 15.914062 88.214844 9.515625 85.105469 5.398438 Z M 85.105469 5.398438 "/>
</clipPath>
<clipPath id="clip30">
  <path d="M 54.140625 10.191406 L 80.066406 -9.3125 L 98.007812 14.453125 L 72.082031 33.953125 Z M 54.140625 10.191406 "/>
</clipPath>
</defs>
<g id="surface1">
<path style=" stroke:none;fill-rule:nonzero;fill:rgb(0%,0%,0%);fill-opacity:1;" d="M 51.625 12.253906 L 56.375 11.949219 C 56.480469 12.722656 56.679688 13.300781 57.007812 13.714844 C 57.53125 14.363281 58.25 14.6875 59.207031 14.6875 C 59.914062 14.6875 60.472656 14.527344 60.851562 14.183594 C 61.214844 13.914062 61.429688 13.480469 61.429688 13.03125 C 61.429688 12.597656 61.230469 12.183594 60.886719 11.914062 C 60.527344 11.589844 59.679688 11.265625 58.34375 10.976562 C 56.15625 10.488281 54.585938 9.839844 53.664062 9.011719 C 52.746094 8.234375 52.222656 7.101562 52.257812 5.894531 C 52.257812 5.0625 52.511719 4.234375 52.980469 3.550781 C 53.519531 2.777344 54.261719 2.164062 55.144531 1.820312 C 56.101562 1.40625 57.4375 1.191406 59.117188 1.191406 C 61.175781 1.191406 62.75 1.566406 63.832031 2.34375 C 64.914062 3.101562 65.566406 4.324219 65.761719 6 L 61.070312 6.273438 C 60.941406 5.550781 60.691406 5.027344 60.273438 4.6875 C 59.859375 4.34375 59.316406 4.179688 58.613281 4.179688 C 58.035156 4.179688 57.601562 4.308594 57.3125 4.542969 C 57.042969 4.757812 56.863281 5.082031 56.878906 5.441406 C 56.878906 5.714844 57.023438 5.964844 57.242188 6.128906 C 57.476562 6.34375 58.035156 6.542969 58.921875 6.722656 C 61.105469 7.191406 62.65625 7.660156 63.613281 8.144531 C 64.570312 8.632812 65.257812 9.226562 65.671875 9.929688 C 66.105469 10.652344 66.324219 11.480469 66.304688 12.328125 C 66.304688 13.335938 66.015625 14.347656 65.4375 15.191406 C 64.84375 16.074219 64.011719 16.761719 63.035156 17.175781 C 62.007812 17.625 60.707031 17.859375 59.15625 17.859375 C 56.410156 17.859375 54.515625 17.335938 53.449219 16.273438 C 52.382812 15.210938 51.75 13.878906 51.625 12.253906 Z M 1.230469 17.589844 L 1.230469 1.476562 L 9.554688 1.476562 C 11.085938 1.476562 12.28125 1.605469 13.09375 1.875 C 13.886719 2.125 14.589844 2.648438 15.058594 3.351562 C 15.582031 4.128906 15.835938 5.027344 15.820312 5.964844 C 15.871094 7.550781 15.058594 9.066406 13.667969 9.859375 C 13.128906 10.164062 12.53125 10.382812 11.917969 10.488281 C 12.371094 10.613281 12.820312 10.832031 13.21875 11.082031 C 13.523438 11.335938 13.777344 11.625 14.011719 11.929688 C 14.285156 12.238281 14.519531 12.578125 14.71875 12.941406 L 17.136719 17.609375 L 11.46875 17.609375 L 8.792969 12.652344 C 8.453125 12.019531 8.164062 11.605469 7.890625 11.40625 C 7.53125 11.15625 7.097656 11.03125 6.664062 11.03125 L 6.230469 11.03125 L 6.230469 17.570312 L 1.230469 17.570312 Z M 6.230469 8 L 8.34375 8 C 8.792969 7.964844 9.226562 7.894531 9.660156 7.785156 C 9.984375 7.730469 10.273438 7.550781 10.472656 7.28125 C 10.960938 6.632812 10.890625 5.714844 10.292969 5.15625 C 9.96875 4.882812 9.335938 4.738281 8.433594 4.738281 L 6.230469 4.738281 Z M 0.0898438 31.394531 L 4.839844 31.089844 C 4.949219 31.863281 5.148438 32.441406 5.472656 32.855469 C 5.976562 33.503906 6.71875 33.847656 7.675781 33.847656 C 8.378906 33.847656 8.9375 33.683594 9.316406 33.339844 C 9.679688 33.054688 9.894531 32.636719 9.894531 32.1875 C 9.894531 31.753906 9.699219 31.339844 9.355469 31.070312 C 8.992188 30.746094 8.144531 30.421875 6.789062 30.132812 C 4.605469 29.648438 3.035156 29 2.113281 28.167969 C 1.191406 27.394531 0.667969 26.257812 0.703125 25.050781 C 0.703125 24.222656 0.957031 23.394531 1.425781 22.707031 C 1.96875 21.933594 2.710938 21.320312 3.59375 20.976562 C 4.550781 20.5625 5.886719 20.347656 7.566406 20.347656 C 9.625 20.347656 11.195312 20.726562 12.28125 21.5 C 13.363281 22.277344 13.996094 23.484375 14.195312 25.160156 L 9.5 25.429688 C 9.371094 24.707031 9.121094 24.1875 8.703125 23.84375 C 8.308594 23.5 7.746094 23.339844 7.042969 23.355469 C 6.464844 23.355469 6.03125 23.484375 5.742188 23.734375 C 5.453125 23.953125 5.292969 24.277344 5.308594 24.636719 C 5.308594 24.90625 5.453125 25.160156 5.671875 25.320312 C 5.90625 25.539062 6.464844 25.734375 7.351562 25.917969 C 9.535156 26.386719 11.085938 26.851562 12.042969 27.339844 C 13 27.828125 13.6875 28.421875 14.101562 29.125 C 14.535156 29.84375 14.753906 30.675781 14.753906 31.503906 C 14.753906 32.511719 14.445312 33.503906 13.886719 34.351562 C 13.289062 35.234375 12.460938 35.917969 11.484375 36.332031 C 10.457031 36.785156 9.15625 37.019531 7.601562 37.019531 C 4.859375 37.019531 2.960938 36.496094 1.898438 35.433594 C 0.832031 34.351562 0.234375 33.015625 0.0898438 31.394531 Z M 0.0898438 31.394531 "/>
<path style=" stroke:none;fill-rule:nonzero;fill:rgb(0%,0%,0%);fill-opacity:1;" d="M 24.105469 30.132812 L 28.476562 31.449219 C 28.242188 32.546875 27.753906 33.59375 27.085938 34.511719 C 26.472656 35.324219 25.660156 35.953125 24.738281 36.371094 C 23.800781 36.785156 22.609375 37 21.164062 37 C 19.410156 37 17.96875 36.746094 16.867188 36.242188 C 15.746094 35.738281 14.789062 34.835938 13.976562 33.558594 C 13.164062 32.277344 12.765625 30.636719 12.765625 28.636719 C 12.765625 25.96875 13.472656 23.914062 14.898438 22.492188 C 16.324219 21.066406 18.328125 20.347656 20.929688 20.347656 C 22.96875 20.347656 24.558594 20.761719 25.730469 21.574219 C 26.886719 22.402344 27.753906 23.664062 28.332031 25.359375 L 23.925781 26.332031 C 23.816406 25.953125 23.65625 25.574219 23.4375 25.25 C 23.167969 24.871094 22.824219 24.582031 22.410156 24.367188 C 21.992188 24.148438 21.523438 24.058594 21.054688 24.058594 C 19.917969 24.058594 19.050781 24.511719 18.453125 25.429688 C 18.003906 26.097656 17.769531 27.160156 17.769531 28.601562 C 17.769531 30.386719 18.039062 31.609375 18.582031 32.277344 C 19.121094 32.945312 19.882812 33.269531 20.875 33.269531 C 21.832031 33.269531 22.554688 33 23.042969 32.476562 C 23.527344 31.917969 23.890625 31.144531 24.105469 30.132812 Z M 34.308594 20.617188 L 39.292969 20.617188 L 39.292969 26.257812 L 44.746094 26.257812 L 44.746094 20.617188 L 49.765625 20.617188 L 49.765625 36.730469 L 44.746094 36.730469 L 44.746094 30.207031 L 39.292969 30.207031 L 39.292969 36.730469 L 34.308594 36.730469 Z M 34.308594 20.617188 "/>
<path style=" stroke:none;fill-rule:nonzero;fill:rgb(0%,0%,0%);fill-opacity:1;" d="M 49.078125 28.671875 C 49.078125 26.042969 49.820312 23.988281 51.28125 22.527344 C 52.746094 21.066406 54.804688 20.328125 57.421875 20.328125 C 60.113281 20.328125 62.171875 21.050781 63.632812 22.492188 C 65.09375 23.933594 65.816406 25.953125 65.816406 28.546875 C 65.816406 30.441406 65.492188 31.972656 64.859375 33.179688 C 64.246094 34.367188 63.289062 35.34375 62.117188 35.992188 C 60.90625 36.65625 59.40625 37 57.621094 37 C 55.796875 37 54.296875 36.710938 53.105469 36.136719 C 51.878906 35.523438 50.867188 34.566406 50.199219 33.394531 C 49.457031 32.132812 49.078125 30.566406 49.078125 28.671875 Z M 54.0625 28.691406 C 54.0625 30.3125 54.371094 31.484375 54.964844 32.207031 C 55.5625 32.910156 56.390625 33.269531 57.4375 33.269531 C 58.503906 33.269531 59.335938 32.925781 59.929688 32.222656 C 60.527344 31.519531 60.816406 30.277344 60.816406 28.476562 C 60.816406 26.960938 60.507812 25.84375 59.894531 25.160156 C 59.28125 24.457031 58.449219 24.113281 57.402344 24.113281 C 56.480469 24.078125 55.597656 24.472656 54.984375 25.175781 C 54.371094 25.878906 54.0625 27.050781 54.0625 28.691406 Z M 70.929688 28.671875 C 70.929688 26.042969 71.667969 23.988281 73.128906 22.527344 C 74.59375 21.066406 76.652344 20.328125 79.269531 20.328125 C 81.960938 20.328125 84.035156 21.050781 85.480469 22.492188 C 86.925781 23.933594 87.667969 25.953125 87.667969 28.546875 C 87.667969 30.441406 87.339844 31.972656 86.710938 33.179688 C 86.09375 34.367188 85.136719 35.34375 83.964844 35.992188 C 82.753906 36.65625 81.257812 37 79.46875 37 C 77.644531 37 76.144531 36.710938 74.953125 36.136719 C 73.726562 35.523438 72.714844 34.566406 72.046875 33.394531 C 71.308594 32.132812 70.929688 30.566406 70.929688 28.671875 Z M 75.910156 28.691406 C 75.910156 30.3125 76.21875 31.484375 76.8125 32.207031 C 77.410156 32.910156 78.242188 33.269531 79.289062 33.269531 C 80.351562 33.269531 81.183594 32.925781 81.78125 32.222656 C 82.375 31.519531 82.664062 30.277344 82.664062 28.476562 C 82.664062 26.960938 82.359375 25.84375 81.742188 25.160156 C 81.128906 24.457031 80.300781 24.113281 79.25 24.113281 C 78.332031 24.078125 77.429688 24.472656 76.832031 25.175781 C 76.21875 25.878906 75.910156 27.050781 75.910156 28.691406 Z M 75.910156 28.691406 "/>
<path style=" stroke:none;fill-rule:nonzero;fill:rgb(0%,0%,0%);fill-opacity:1;" d="M 87.144531 20.617188 L 92.125 20.617188 L 92.125 32.765625 L 99.910156 32.765625 L 99.910156 36.730469 L 87.125 36.730469 L 87.125 20.617188 Z M 87.144531 20.617188 "/>
<path style=" stroke:none;fill-rule:nonzero;fill:rgb(100%,100%,100%);fill-opacity:1;" d="M 85.105469 5.398438 C 81.996094 1.28125 75.410156 1.003906 70.390625 4.777344 C 65.375 8.550781 63.828125 14.949219 66.933594 19.066406 C 70.042969 23.183594 76.632812 23.460938 81.648438 19.6875 C 86.667969 15.914062 88.214844 9.515625 85.105469 5.398438 Z M 85.105469 5.398438 "/>
<g clip-path="url(#clip1)" clip-rule="nonzero">
<g clip-path="url(#clip2)" clip-rule="nonzero">
<path style=" stroke:none;fill-rule:nonzero;fill:rgb(100%,100%,100%);fill-opacity:1;" d="M 54.140625 10.191406 L 80.066406 -9.3125 L 98.007812 14.453125 L 72.082031 33.953125 Z M 54.140625 10.191406 "/>
<g clip-path="url(#clip3)" clip-rule="nonzero">
<path style=" stroke:none;fill-rule:nonzero;fill:rgb(100%,100%,100%);fill-opacity:1;" d="M 85.105469 5.398438 C 81.996094 1.28125 75.410156 1.003906 70.390625 4.777344 C 65.375 8.550781 63.828125 14.949219 66.933594 19.066406 C 70.042969 23.183594 76.632812 23.460938 81.648438 19.6875 C 86.667969 15.914062 88.214844 9.515625 85.105469 5.398438 Z M 85.105469 5.398438 "/>
<g clip-path="url(#clip4)" clip-rule="nonzero">
<path style=" stroke:none;fill-rule:nonzero;fill:rgb(100%,100%,100%);fill-opacity:1;" d="M 61.359375 11.777344 L 79.515625 -1.878906 L 90.785156 13.046875 L 72.628906 26.703125 Z M 61.359375 11.777344 "/>
<g clip-path="url(#clip5)" clip-rule="nonzero">
<path style="fill-rule:nonzero;fill:rgb(100%,100%,100%);fill-opacity:1;stroke-width:4;stroke-linecap:butt;stroke-linejoin:miter;stroke:rgb(0%,0%,0%);stroke-opacity:1;stroke-miterlimit:10;" d="M 483.501576 67.89788 C 483.497926 39.289931 455.295396 16.110112 420.493934 16.101286 C 385.709749 16.10548 357.501597 39.303099 357.48797 67.898028 C 357.491619 96.505977 385.711427 119.698815 420.495612 119.694621 C 455.297073 119.703447 483.505226 96.505829 483.501576 67.89788 Z M 483.501576 67.89788 " transform="matrix(0.144206,-0.108464,0.108671,0.143931,8.003227,48.068342)"/>
</g>
</g>
</g>
</g>
</g>
<g clip-path="url(#clip6)" clip-rule="nonzero">
<g clip-path="url(#clip7)" clip-rule="nonzero">
<g clip-path="url(#clip8)" clip-rule="nonzero">
<g clip-path="url(#clip9)" clip-rule="nonzero">
<g clip-path="url(#clip10)" clip-rule="nonzero">
<path style="fill:none;stroke-width:4;stroke-linecap:butt;stroke-linejoin:miter;stroke:rgb(0%,0%,0%);stroke-opacity:1;stroke-miterlimit:10;" d="M 357.796872 17.002044 L 483.702238 16.999549 L 483.705379 120.701182 L 357.800013 120.703676 Z M 357.796872 17.002044 " transform="matrix(0.144208,-0.108462,0.108668,0.143933,7.914734,48.137386)"/>
</g>
</g>
</g>
</g>
</g>
<g clip-path="url(#clip11)" clip-rule="nonzero">
<g clip-path="url(#clip12)" clip-rule="nonzero">
<g clip-path="url(#clip13)" clip-rule="nonzero">
<g clip-path="url(#clip14)" clip-rule="nonzero">
<path style="fill:none;stroke-width:4;stroke-linecap:butt;stroke-linejoin:miter;stroke:rgb(0%,0%,0%);stroke-opacity:1;stroke-miterlimit:10;" d="M 483.501576 67.89788 C 483.497926 39.289931 455.295396 16.110112 420.493934 16.101286 C 385.709749 16.10548 357.501597 39.303099 357.48797 67.898028 C 357.491619 96.505977 385.711427 119.698815 420.495612 119.694621 C 455.297073 119.703447 483.505226 96.505829 483.501576 67.89788 Z M 483.501576 67.89788 " transform="matrix(0.144206,-0.108464,0.108671,0.143931,8.003227,48.068342)"/>
<path style=" stroke:none;fill-rule:nonzero;fill:rgb(100%,100%,100%);fill-opacity:1;" d="M 61.359375 11.777344 L 79.515625 -1.878906 L 90.785156 13.046875 L 72.628906 26.703125 Z M 61.359375 11.777344 "/>
<g clip-path="url(#clip15)" clip-rule="nonzero">
<path style="fill-rule:nonzero;fill:rgb(100%,100%,100%);fill-opacity:1;stroke-width:4;stroke-linecap:butt;stroke-linejoin:miter;stroke:rgb(0%,0%,0%);stroke-opacity:1;stroke-miterlimit:10;" d="M 483.501576 67.89788 C 483.497926 39.289931 455.295396 16.110112 420.493934 16.101286 C 385.709749 16.10548 357.501597 39.303099 357.48797 67.898028 C 357.491619 96.505977 385.711427 119.698815 420.495612 119.694621 C 455.297073 119.703447 483.505226 96.505829 483.501576 67.89788 Z M 483.501576 67.89788 " transform="matrix(0.144206,-0.108464,0.108671,0.143931,8.003227,48.068342)"/>
</g>
</g>
</g>
</g>
</g>
<g clip-path="url(#clip16)" clip-rule="nonzero">
<g clip-path="url(#clip17)" clip-rule="nonzero">
<g clip-path="url(#clip18)" clip-rule="nonzero">
<g clip-path="url(#clip19)" clip-rule="nonzero">
<g clip-path="url(#clip20)" clip-rule="nonzero">
<path style="fill:none;stroke-width:4;stroke-linecap:butt;stroke-linejoin:miter;stroke:rgb(0%,0%,0%);stroke-opacity:1;stroke-miterlimit:10;" d="M 357.796872 17.002044 L 483.702238 16.999549 L 483.705379 120.701182 L 357.800013 120.703676 Z M 357.796872 17.002044 " transform="matrix(0.144208,-0.108462,0.108668,0.143933,7.914734,48.137386)"/>
</g>
</g>
</g>
</g>
</g>
<g clip-path="url(#clip21)" clip-rule="nonzero">
<g clip-path="url(#clip22)" clip-rule="nonzero">
<g clip-path="url(#clip23)" clip-rule="nonzero">
<g clip-path="url(#clip24)" clip-rule="nonzero">
<path style="fill:none;stroke-width:4;stroke-linecap:butt;stroke-linejoin:miter;stroke:rgb(0%,0%,0%);stroke-opacity:1;stroke-miterlimit:10;" d="M 330.900249 -14.189842 L 510.696456 -14.20707 L 510.68733 150.903727 L 330.904167 150.903644 Z M 330.900249 -14.189842 " transform="matrix(0.144206,-0.108464,0.108671,0.143931,7.964916,48.124555)"/>
</g>
</g>
</g>
</g>
<g clip-path="url(#clip25)" clip-rule="nonzero">
<g clip-path="url(#clip26)" clip-rule="nonzero">
<g clip-path="url(#clip27)" clip-rule="nonzero">
<path style="fill:none;stroke-width:4;stroke-linecap:butt;stroke-linejoin:miter;stroke:rgb(0%,0%,0%);stroke-opacity:1;stroke-miterlimit:10;" d="M 483.501576 67.89788 C 483.497926 39.289931 455.295396 16.110112 420.493934 16.101286 C 385.709749 16.10548 357.501597 39.303099 357.48797 67.898028 C 357.491619 96.505977 385.711427 119.698815 420.495612 119.694621 C 455.297073 119.703447 483.505226 96.505829 483.501576 67.89788 Z M 483.501576 67.89788 " transform="matrix(0.144206,-0.108464,0.108671,0.143931,8.003227,48.068342)"/>
</g>
</g>
</g>
<g clip-path="url(#clip28)" clip-rule="nonzero">
<g clip-path="url(#clip29)" clip-rule="nonzero">
<g clip-path="url(#clip30)" clip-rule="nonzero">
<path style=" stroke:none;fill-rule:nonzero;fill:rgb(0%,0%,0%);fill-opacity:1;" d="M 70.945312 11.046875 L 72.75 9.785156 L 74.972656 12.941406 C 75.351562 13.445312 75.640625 13.984375 75.855469 14.582031 C 75.984375 15.03125 75.949219 15.515625 75.765625 15.949219 C 75.53125 16.492188 75.152344 16.941406 74.648438 17.265625 C 74.050781 17.679688 73.546875 17.914062 73.113281 17.988281 C 72.699219 18.058594 72.265625 17.988281 71.867188 17.804688 C 71.433594 17.589844 71.054688 17.285156 70.765625 16.886719 L 72.316406 15.445312 C 72.445312 15.644531 72.605469 15.824219 72.789062 15.96875 C 72.914062 16.058594 73.058594 16.113281 73.222656 16.113281 C 73.347656 16.113281 73.472656 16.058594 73.5625 15.984375 C 73.746094 15.878906 73.871094 15.660156 73.851562 15.445312 C 73.796875 15.140625 73.671875 14.832031 73.472656 14.597656 Z M 76.363281 13.046875 L 78.007812 11.75 C 78.1875 11.96875 78.421875 12.128906 78.675781 12.21875 C 79.035156 12.328125 79.414062 12.253906 79.722656 12.019531 C 79.9375 11.875 80.117188 11.679688 80.191406 11.425781 C 80.300781 11.101562 80.117188 10.742188 79.792969 10.632812 C 79.738281 10.613281 79.683594 10.597656 79.632812 10.597656 C 79.414062 10.578125 79.035156 10.667969 78.476562 10.902344 C 77.554688 11.28125 76.832031 11.425781 76.289062 11.371094 C 75.765625 11.316406 75.28125 11.046875 74.992188 10.597656 C 74.773438 10.289062 74.664062 9.929688 74.648438 9.570312 C 74.648438 9.15625 74.753906 8.742188 74.992188 8.398438 C 75.332031 7.910156 75.75 7.496094 76.253906 7.171875 C 77.011719 6.648438 77.679688 6.398438 78.257812 6.398438 C 78.835938 6.398438 79.378906 6.667969 79.882812 7.226562 L 78.257812 8.507812 C 77.933594 8.09375 77.320312 8 76.90625 8.328125 L 76.851562 8.378906 C 76.667969 8.488281 76.542969 8.652344 76.472656 8.847656 C 76.417969 8.992188 76.453125 9.15625 76.542969 9.28125 C 76.617188 9.371094 76.722656 9.445312 76.851562 9.445312 C 76.996094 9.460938 77.246094 9.390625 77.609375 9.226562 C 78.511719 8.847656 79.199219 8.632812 79.667969 8.5625 C 80.066406 8.488281 80.480469 8.523438 80.859375 8.6875 C 81.203125 8.832031 81.492188 9.082031 81.691406 9.390625 C 81.941406 9.75 82.085938 10.183594 82.105469 10.632812 C 82.121094 11.101562 81.996094 11.550781 81.742188 11.949219 C 81.417969 12.433594 81.003906 12.851562 80.515625 13.175781 C 79.523438 13.859375 78.710938 14.148438 78.058594 14.039062 C 77.355469 13.929688 76.777344 13.570312 76.363281 13.046875 Z M 76.363281 13.046875 "/>
</g>
</g>
</g>
</g>
</svg>
