<?xml version="1.0" encoding="UTF-8"?>
<svg xmlns="http://www.w3.org/2000/svg" xmlns:xlink="http://www.w3.org/1999/xlink" width="30px" height="px" viewBox="0 0 30 30" version="1.1">
<g id="surface1">
<path style=" stroke:none;fill-rule:nonzero;fill:rgb(0%,0%,0%);fill-opacity:1;" d="M 21.085938 9.457031 C 21.078125 8.65625 20.425781 8.011719 19.625 8.007812 L 10.367188 7.980469 C 9.566406 7.980469 8.917969 8.628906 8.914062 9.429688 L 8.914062 18.976562 C 8.914062 19.777344 9.566406 20.382812 10.367188 20.382812 L 18.277344 20.382812 L 17.894531 19.09375 L 21.085938 22.019531 Z M 17.007812 17.160156 C 17.007812 17.160156 16.753906 16.855469 16.539062 16.59375 C 17.46875 16.332031 17.824219 15.761719 17.824219 15.761719 C 17.566406 15.929688 17.292969 16.070312 17.007812 16.175781 C 16.675781 16.316406 16.332031 16.417969 15.980469 16.480469 C 15.375 16.59375 14.753906 16.589844 14.148438 16.472656 C 13.789062 16.40625 13.441406 16.304688 13.105469 16.171875 C 12.929688 16.101562 12.753906 16.023438 12.589844 15.929688 C 12.566406 15.914062 12.546875 15.910156 12.523438 15.894531 C 12.511719 15.886719 12.503906 15.878906 12.496094 15.878906 C 12.367188 15.808594 12.296875 15.761719 12.296875 15.761719 C 12.296875 15.761719 12.636719 16.320312 13.535156 16.585938 C 13.324219 16.855469 13.0625 17.167969 13.0625 17.167969 C 11.496094 17.117188 10.902344 16.097656 10.902344 16.097656 C 10.902344 13.84375 11.921875 12.015625 11.921875 12.015625 C 12.941406 11.257812 13.90625 11.28125 13.90625 11.28125 L 13.976562 11.367188 C 12.699219 11.726562 12.121094 12.285156 12.121094 12.285156 C 12.121094 12.285156 12.277344 12.199219 12.539062 12.085938 C 13.296875 11.753906 13.898438 11.667969 14.148438 11.640625 C 14.1875 11.632812 14.226562 11.628906 14.265625 11.625 C 14.742188 11.566406 15.222656 11.5625 15.699219 11.613281 C 16.445312 11.699219 17.167969 11.925781 17.828125 12.285156 C 17.828125 12.285156 17.269531 11.753906 16.066406 11.394531 L 16.164062 11.28125 C 16.164062 11.28125 17.136719 11.257812 18.148438 12.015625 C 18.148438 12.015625 19.167969 13.847656 19.167969 16.101562 C 19.167969 16.09375 18.574219 17.109375 17.007812 17.160156 Z M 17.007812 17.160156 "/>
<path style=" stroke:none;fill-rule:nonzero;fill:rgb(0%,0%,0%);fill-opacity:1;" d="M 13.710938 13.886719 C 13.308594 13.886719 12.988281 14.234375 12.988281 14.664062 C 12.988281 15.097656 13.316406 15.441406 13.710938 15.441406 C 14.117188 15.441406 14.433594 15.097656 14.433594 14.664062 C 14.441406 14.234375 14.117188 13.886719 13.710938 13.886719 Z M 13.710938 13.886719 "/>
<path style=" stroke:none;fill-rule:nonzero;fill:rgb(0%,0%,0%);fill-opacity:1;" d="M 16.300781 13.886719 C 15.898438 13.886719 15.578125 14.234375 15.578125 14.664062 C 15.578125 15.097656 15.90625 15.441406 16.300781 15.441406 C 16.707031 15.441406 17.023438 15.097656 17.023438 14.664062 C 17.023438 14.234375 16.699219 13.886719 16.300781 13.886719 Z M 16.300781 13.886719 "/>
</g>
</svg>
