<?xml version="1.0" encoding="UTF-8"?>
<svg xmlns="http://www.w3.org/2000/svg" xmlns:xlink="http://www.w3.org/1999/xlink" width="30px" height="30px" viewBox="0 0 30 30" version="1.1">
<g id="surface1">
<path style=" stroke:none;fill-rule:nonzero;fill:rgb(0%,0%,0%);fill-opacity:1;" d="M 20.5 16.777344 L 17.757812 15.609375 C 17.46875 15.480469 17.132812 15.507812 16.871094 15.683594 L 15.402344 16.660156 C 14.507812 16.226562 13.785156 15.503906 13.34375 14.613281 L 14.316406 13.128906 C 14.492188 12.867188 14.523438 12.535156 14.398438 12.242188 L 13.222656 9.5 C 13.054688 9.121094 12.660156 8.894531 12.246094 8.9375 C 10.609375 9.152344 9.386719 10.542969 9.382812 12.191406 C 9.382812 16.835938 13.164062 20.617188 17.808594 20.617188 C 19.457031 20.613281 20.847656 19.390625 21.0625 17.753906 C 21.105469 17.339844 20.878906 16.945312 20.5 16.777344 Z M 20.5 16.777344 "/>
<path style=" stroke:none;fill-rule:nonzero;fill:rgb(0%,0%,0%);fill-opacity:1;" d="M 16.726562 10.296875 C 18.175781 10.691406 19.308594 11.824219 19.703125 13.273438 C 19.757812 13.480469 19.941406 13.625 20.152344 13.625 C 20.195312 13.625 20.238281 13.621094 20.277344 13.609375 C 20.398438 13.578125 20.5 13.5 20.5625 13.390625 C 20.621094 13.28125 20.636719 13.152344 20.605469 13.035156 C 20.128906 11.257812 18.742188 9.871094 16.964844 9.394531 C 16.796875 9.335938 16.613281 9.375 16.484375 9.496094 C 16.355469 9.617188 16.304688 9.800781 16.355469 9.972656 C 16.410156 10.140625 16.550781 10.265625 16.726562 10.296875 Z M 16.726562 10.296875 "/>
<path style=" stroke:none;fill-rule:nonzero;fill:rgb(0%,0%,0%);fill-opacity:1;" d="M 16.238281 12.105469 C 17.042969 12.328125 17.671875 12.957031 17.894531 13.761719 C 17.945312 13.96875 18.132812 14.113281 18.34375 14.113281 C 18.382812 14.113281 18.421875 14.105469 18.460938 14.09375 C 18.582031 14.066406 18.6875 13.988281 18.75 13.878906 C 18.8125 13.769531 18.828125 13.640625 18.792969 13.523438 C 18.492188 12.390625 17.609375 11.507812 16.476562 11.207031 C 16.3125 11.144531 16.125 11.183594 15.996094 11.304688 C 15.867188 11.425781 15.820312 11.609375 15.871094 11.78125 C 15.921875 11.949219 16.0625 12.074219 16.238281 12.105469 Z M 16.238281 12.105469 "/>
</g>
</svg>
