<?xml version="1.0" encoding="UTF-8"?>
<svg xmlns="http://www.w3.org/2000/svg" xmlns:xlink="http://www.w3.org/1999/xlink" width="30px" height="px" viewBox="0 0 30 30" version="1.1">
<g id="surface1">
<path style=" stroke:none;fill-rule:nonzero;fill:rgb(0%,0%,0%);fill-opacity:1;" d="M 15 7.511719 C 10.863281 7.511719 7.511719 10.863281 7.511719 15 C 7.511719 19.136719 10.863281 22.488281 15 22.488281 C 19.136719 22.488281 22.488281 19.136719 22.488281 15 C 22.488281 10.863281 19.136719 7.511719 15 7.511719 Z M 18.890625 12.25 L 17.5625 18.597656 C 17.53125 18.753906 17.417969 18.882812 17.269531 18.9375 C 17.121094 18.996094 16.953125 18.972656 16.824219 18.878906 L 14.890625 17.449219 L 13.71875 18.554688 C 13.6875 18.585938 13.648438 18.597656 13.605469 18.597656 C 13.5625 18.597656 13.519531 18.578125 13.492188 18.546875 L 13.46875 18.519531 L 13.671875 16.546875 L 17.339844 13.195312 C 17.378906 13.160156 17.382812 13.101562 17.351562 13.0625 C 17.324219 13.023438 17.265625 13.011719 17.222656 13.039062 L 12.527344 16.007812 L 10.507812 15.332031 C 10.398438 15.292969 10.320312 15.191406 10.320312 15.074219 C 10.316406 14.960938 10.390625 14.855469 10.496094 14.8125 L 18.40625 11.832031 C 18.53125 11.785156 18.671875 11.8125 18.773438 11.898438 C 18.875 11.984375 18.917969 12.117188 18.890625 12.25 Z M 18.890625 12.25 "/>
</g>
</svg>
