<?xml version="1.0" encoding="UTF-8"?>
<svg xmlns="http://www.w3.org/2000/svg" xmlns:xlink="http://www.w3.org/1999/xlink" width="50px" height="px" viewBox="0 0 50 50" version="1.1">
<g id="surface1">
<path style=" stroke:none;fill-rule:nonzero;fill:rgb(0%,0%,0%);fill-opacity:1;" d="M 35.425781 15.617188 L 14.574219 15.617188 C 13.421875 15.617188 12.488281 16.550781 12.488281 17.703125 L 12.488281 32.296875 C 12.488281 33.449219 13.421875 34.382812 14.574219 34.382812 L 35.425781 34.382812 C 36.578125 34.382812 37.5 33.449219 37.5 32.296875 L 37.511719 17.703125 C 37.511719 16.550781 36.578125 15.617188 35.425781 15.617188 Z M 20.828125 18.746094 C 22.554688 18.746094 23.957031 20.148438 23.957031 21.871094 C 23.957031 23.601562 22.554688 25 20.828125 25 C 19.105469 25 17.703125 23.601562 17.703125 21.871094 C 17.703125 20.148438 19.105469 18.746094 20.828125 18.746094 Z M 27.085938 31.253906 L 14.574219 31.253906 L 14.574219 30.210938 C 14.574219 28.128906 18.746094 26.980469 20.828125 26.980469 C 22.914062 26.980469 27.085938 28.128906 27.085938 30.210938 Z M 31.097656 27.085938 L 32.808594 27.085938 L 34.382812 29.171875 L 32.300781 31.25 C 30.941406 30.226562 29.925781 28.773438 29.457031 27.085938 C 29.273438 26.417969 29.171875 25.722656 29.171875 25 C 29.171875 24.277344 29.273438 23.582031 29.460938 22.914062 C 29.925781 21.226562 30.941406 19.773438 32.308594 18.75 L 34.382812 20.828125 L 32.808594 22.914062 L 31.097656 22.914062 C 30.871094 23.566406 30.734375 24.269531 30.734375 25 C 30.734375 25.730469 30.863281 26.433594 31.097656 27.085938 Z M 31.097656 27.085938 "/>
</g>
</svg>
