<?xml version="1.0" encoding="UTF-8"?>
<svg xmlns="http://www.w3.org/2000/svg" xmlns:xlink="http://www.w3.org/1999/xlink" width="50px" height="px" viewBox="0 0 50 50" version="1.1">
<g id="surface1">
<path style=" stroke:none;fill-rule:evenodd;fill:rgb(0%,0%,0%);fill-opacity:1;" d="M 25 12.5 C 18.125 12.5 12.5 18.125 12.5 25 C 12.5 31.875 18.125 37.5 25 37.5 C 31.875 37.5 37.5 31.875 37.5 25 C 37.5 18.125 31.875 12.5 25 12.5 Z M 33.625 20 L 30 20 C 29.625 18.375 29 17 28.25 15.5 C 30.5 16.375 32.5 17.875 33.625 20 Z M 25 15 C 26 16.5 26.875 18.125 27.375 20 L 22.625 20 C 23.125 18.25 24 16.5 25 15 Z M 15.375 27.5 C 15.125 26.75 15 25.875 15 25 C 15 24.125 15.125 23.25 15.375 22.5 L 19.625 22.5 C 19.5 23.375 19.5 24.125 19.5 25 C 19.5 25.875 19.625 26.625 19.625 27.5 Z M 16.375 30 L 20 30 C 20.375 31.625 21 33 21.75 34.5 C 19.5 33.625 17.5 32.125 16.375 30 Z M 20 20 L 16.375 20 C 17.625 17.875 19.5 16.375 21.75 15.5 C 21 17 20.375 18.375 20 20 Z M 25 35 C 24 33.5 23.125 31.875 22.625 30 L 27.375 30 C 26.875 31.75 26 33.5 25 35 Z M 27.875 27.5 L 22.125 27.5 C 22 26.625 21.875 25.875 21.875 25 C 21.875 24.125 22 23.375 22.125 22.5 L 28 22.5 C 28.125 23.375 28.25 24.125 28.25 25 C 28.25 25.875 28 26.625 27.875 27.5 Z M 28.25 34.5 C 29 33.125 29.625 31.625 30 30 L 33.625 30 C 32.5 32.125 30.5 33.625 28.25 34.5 Z M 30.5 27.5 C 30.625 26.625 30.625 25.875 30.625 25 C 30.625 24.125 30.5 23.375 30.5 22.5 L 34.75 22.5 C 35 23.25 35.125 24.125 35.125 25 C 35.125 25.875 35 26.75 34.75 27.5 Z M 30.5 27.5 "/>
</g>
</svg>
