<?xml version="1.0" encoding="UTF-8"?>
<svg xmlns="http://www.w3.org/2000/svg" xmlns:xlink="http://www.w3.org/1999/xlink" width="50px" height="px" viewBox="0 0 50 50" version="1.1">
<g id="surface1">
<path style=" stroke:none;fill-rule:nonzero;fill:rgb(0%,0%,0%);fill-opacity:1;" d="M 35.964844 22.429688 L 34.976562 22.429688 C 34.171875 22.429688 33.496094 21.734375 33.496094 20.910156 C 33.496094 20.492188 33.671875 20.117188 33.984375 19.835938 L 34.621094 19.210938 C 35.25 18.585938 35.25 17.566406 34.621094 16.941406 L 33.171875 15.507812 C 32.882812 15.222656 32.460938 15.050781 32.03125 15.050781 C 31.605469 15.050781 31.1875 15.222656 30.894531 15.507812 L 30.285156 16.117188 C 29.992188 16.441406 29.601562 16.617188 29.179688 16.617188 C 28.347656 16.617188 27.652344 15.941406 27.652344 15.144531 L 27.652344 14.148438 C 27.652344 13.269531 26.945312 12.515625 26.058594 12.515625 L 24.082031 12.515625 C 23.199219 12.515625 22.496094 13.265625 22.496094 14.148438 L 22.496094 15.136719 C 22.496094 15.9375 21.800781 16.613281 20.96875 16.613281 C 20.554688 16.613281 20.171875 16.4375 19.890625 16.128906 L 19.261719 15.507812 C 18.972656 15.214844 18.550781 15.050781 18.121094 15.050781 C 17.695312 15.050781 17.277344 15.222656 16.984375 15.507812 L 15.523438 16.9375 C 14.898438 17.5625 14.898438 18.582031 15.523438 19.199219 L 16.132812 19.808594 C 16.460938 20.101562 16.640625 20.492188 16.640625 20.910156 C 16.640625 21.742188 15.964844 22.429688 15.160156 22.429688 L 14.171875 22.429688 C 13.28125 22.429688 12.53125 23.125 12.53125 24.007812 L 12.53125 25.984375 C 12.53125 26.863281 13.28125 27.5625 14.171875 27.5625 L 15.160156 27.5625 C 15.964844 27.5625 16.640625 28.257812 16.640625 29.085938 C 16.640625 29.5 16.460938 29.890625 16.132812 30.183594 L 15.523438 30.789062 C 14.898438 31.414062 14.898438 32.433594 15.523438 33.050781 L 16.972656 34.492188 C 17.257812 34.785156 17.679688 34.949219 18.109375 34.949219 C 18.539062 34.949219 18.953125 34.777344 19.246094 34.492188 L 19.878906 33.871094 C 20.152344 33.5625 20.539062 33.386719 20.957031 33.386719 C 21.789062 33.386719 22.484375 34.0625 22.484375 34.863281 L 22.484375 35.851562 C 22.484375 36.730469 23.1875 37.484375 24.078125 37.484375 L 26.054688 37.484375 C 26.9375 37.484375 27.640625 36.734375 27.640625 35.851562 L 27.640625 34.863281 C 27.640625 34.0625 28.335938 33.386719 29.167969 33.386719 C 29.582031 33.386719 29.972656 33.570312 30.273438 33.890625 L 30.882812 34.5 C 31.175781 34.785156 31.589844 34.953125 32.019531 34.953125 C 32.449219 34.953125 32.863281 34.785156 33.15625 34.5 L 34.605469 33.058594 C 35.230469 32.433594 35.230469 31.414062 34.605469 30.789062 L 33.96875 30.164062 C 33.65625 29.882812 33.484375 29.5 33.484375 29.089844 C 33.484375 28.257812 34.160156 27.570312 34.964844 27.570312 L 35.953125 27.570312 C 36.835938 27.570312 37.46875 26.875 37.46875 25.992188 L 37.46875 24.007812 C 37.480469 23.125 36.847656 22.429688 35.964844 22.429688 Z M 30.265625 24.996094 C 30.265625 27.863281 27.945312 30.195312 25.066406 30.195312 C 22.183594 30.195312 19.863281 27.863281 19.863281 24.996094 C 19.863281 22.128906 22.183594 19.796875 25.066406 19.796875 C 27.945312 19.796875 30.265625 22.128906 30.265625 24.996094 Z M 30.265625 24.996094 "/>
</g>
</svg>
