<?xml version="1.0" encoding="UTF-8"?>
<svg xmlns="http://www.w3.org/2000/svg" xmlns:xlink="http://www.w3.org/1999/xlink" width="50px" height="px" viewBox="0 0 50 50" version="1.1">
<g id="surface1">
<path style=" stroke:none;fill-rule:nonzero;fill:rgb(0%,0%,0%);fill-opacity:1;" d="M 33.339844 18.746094 L 29.171875 18.746094 L 29.171875 16.660156 C 29.171875 15.507812 28.238281 14.574219 27.085938 14.574219 L 22.914062 14.574219 C 21.761719 14.574219 20.828125 15.507812 20.828125 16.660156 L 20.828125 18.746094 L 16.660156 18.746094 C 15.507812 18.746094 14.585938 19.679688 14.585938 20.828125 L 14.574219 32.296875 C 14.574219 33.449219 15.507812 34.382812 16.660156 34.382812 L 33.339844 34.382812 C 34.492188 34.382812 35.425781 33.449219 35.425781 32.296875 L 35.425781 20.828125 C 35.425781 19.679688 34.492188 18.746094 33.339844 18.746094 Z M 27.085938 18.746094 L 22.914062 18.746094 L 22.914062 16.660156 L 27.085938 16.660156 Z M 27.085938 18.746094 "/>
</g>
</svg>
